<?xml version="1.0" encoding="utf-8"?>
<!-- Generator: Adobe Illustrator 19.2.0, SVG Export Plug-In . SVG Version: 6.00 Build 0)  -->
<svg version="1.1" id="Layer_1" xmlns="http://www.w3.org/2000/svg" xmlns:xlink="http://www.w3.org/1999/xlink" x="0px" y="0px"
	 viewBox="0 0 407 585.9" style="enable-background:new 0 0 407 585.9;" xml:space="preserve">
<style type="text/css">
	.st0{fill:#FFFFFF;}
</style>
<path class="st0" d="M377.5,548.1c-78.2-13.3-143.4-37.1-193.8-70.7C141.2,449,108,412.7,85.1,369.5C48.1,299.6,43,221,42.5,164.5
	c0.4-0.3,0.8-0.6,1.2-0.9c6.3-5.3,7.2-14.8,1.8-21.1c-0.1-0.1-0.1-0.2-0.2-0.3c1.3-0.9,2.8-1.8,4.4-2.8c1.2,3.7,3,7.4,5.4,10.9
	c2.9,4.2,7.6,6.5,12.4,6.5c2.9,0,5.9-0.9,8.5-2.6c6.8-4.7,8.6-14,3.9-20.9c-1.2-1.7-1.9-3.7-2.3-5.8c17.9-4.7,35.8-4,53.5,2.1
	c0,4.2,0.4,8.2,1,12c-39.2,6.2-61.9,40.3-62.9,41.9c-4.5,6.9-2.6,16.2,4.4,20.8c2.5,1.6,5.4,2.4,8.2,2.4c4.9,0,9.7-2.4,12.6-6.8
	c0.2-0.3,19.1-28,48-29.2c0.6,0,1.2-0.1,1.8-0.2c1.8,2.4,3.6,4.6,5.5,6.5c-7.5,7.9-14.8,16.8-17.2,23.8
	c-16.9,48.6-10.6,97.2,18.2,140.5c21,31.5,53.2,58.9,93.3,79c39.2,19.7,83.9,31.7,129.2,34.5c0.3,0,0.6,0,0.9,0
	c7.9,0,14.5-6.1,15-14.1c0.5-8.3-5.8-15.4-14-15.9c-84.1-5.2-162.3-44.6-199.4-100.2c-23.4-35.1-28.5-74.5-14.9-113.8
	c1.2-2.5,6.1-8.3,12.2-14.7c0.2-0.2,0.4-0.3,0.6-0.5l49.8-43.5c6.2-5.4,6.9-14.9,1.4-21.2c-5.4-6.2-14.9-6.9-21.2-1.4L172,157.2
	c-5.8-5.7-12.8-16.7-10.6-35.7c0-0.4,0.1-0.7,0.1-1.1c0.2-0.4,0.3-0.9,0.5-1.3l16.1-53.4c2.4-7.9-2.1-16.3-10-18.7
	c-7.9-2.4-16.3,2.1-18.7,10L136.4,100c-3.3-1-6.7-1.9-10.1-2.6l-9.2-68.6c-1.1-8.2-8.6-14-16.9-12.9c-8.2,1.1-14,8.7-12.9,16.9
	l8.3,62c-4.7,0.2-9.3,0.7-14,1.4c-1.2-3.8-3.8-7.1-7.6-9c-7.4-3.7-16.4-0.7-20.1,6.8c-0.2,0.5-2.4,5-4.3,11.8
	c-3,1.3-5.9,2.7-8.6,4.1c-1.6-4.1-5-7.5-9.6-8.9c-7.9-2.4-16.3,2-18.8,9.9c-1.5,5-1.8,14.6-0.3,24.6c0,0,0,0,0,0
	c0,0.4-0.1,0.9-0.1,1.3c0,0,0,0,0,0.1c-0.4,59.1-0.9,157.9,46.1,246.8c25.2,47.6,61.7,87.6,108.4,118.8c53.9,36,123,61.3,205.4,75.3
	c0.9,0.1,1.7,0.2,2.5,0.2c7.2,0,13.5-5.2,14.8-12.5C391.2,557.2,385.7,549.5,377.5,548.1z"/>
</svg>
