<?xml version="1.0" encoding="utf-8"?>
<!-- Generator: Adobe Illustrator 19.2.0, SVG Export Plug-In . SVG Version: 6.00 Build 0)  -->
<svg version="1.1" id="Layer_1" xmlns="http://www.w3.org/2000/svg" xmlns:xlink="http://www.w3.org/1999/xlink" x="0px" y="0px"
	 viewBox="0 0 538 455.9" style="enable-background:new 0 0 538 455.9;" xml:space="preserve">
<style type="text/css">
	.st0{fill:#FFFFFF;}
</style>
<path class="st0" d="M512.1,407C234.3,402.6,194.4,283,168,203.9c-6.5-19.6-12.4-37-21.1-50.3c7.6-1.5,12.9-8.6,12-16.4
	c-0.9-8.2-8.3-14.2-16.6-13.3c-7.7,0.9-17.8-2.4-21-3.8c-0.1,0-0.1,0-0.2-0.1c-0.7-1.3-1.3-2.6-1.8-3.8c6.5,1.6,13.9,2.7,21.5,2.7
	c5,0,10.1-0.5,15.1-1.7c8.1-1.9,13.1-10,11.2-18c-1.9-8.1-10-13.1-18-11.2c-12.2,2.9-27.7-1.9-36.3-5.6c0-1.6,0.1-3.2,0.3-4.8
	c7.8,4,17.6,7.2,29.4,7.2c3.2,0,6.5-0.2,10-0.7c8.2-1.2,13.9-8.8,12.6-17c-1.2-8.2-8.8-13.9-17-12.6c-10.3,1.5-18.4-1.5-24-5
	c25.9-0.3,53.1,3,75.5,13.6c-0.2,1-0.3,2.1-0.3,3.2c0,0.3-0.3,29.5-16.4,37.1c-7.5,3.5-10.7,12.5-7.2,20c2.6,5.4,8,8.6,13.6,8.6
	c2.1,0,4.3-0.5,6.4-1.4c12.3-5.8,20.1-15.6,25-25.8c2.9,19.2,7.5,41.1,14.8,63.3c16.1,49,41.4,87.2,75.2,113.5
	c36.5,28.4,82.4,42.7,137,42.7c18.6,0,38.3-1.7,58.9-5c8.2-1.3,13.7-9,12.4-17.2c-1.3-8.2-9-13.7-17.2-12.4
	c-72.5,11.7-130.6,1-172.7-31.8c-29-22.6-50.9-56-65.1-99.2c-11.7-35.6-15.8-70.6-17.8-93.7l-0.5-5.9l-4.4-4
	C171.3-7.9,31.5,31.8,25.6,33.5c-8,2.3-12.5,10.6-10.2,18.6c2.3,8,10.6,12.5,18.6,10.2c0.5-0.2,23.3-6.6,53.7-10.3
	c-2.2,7.2-4.5,17.7-4.9,30.1c-0.6,21.6,4.9,53.3,34.3,82c8.8,8.6,15.1,27.4,22.4,49.2c27.3,81.9,73,218.9,372.1,223.7
	c0.1,0,0.2,0,0.2,0c8.2,0,14.9-6.6,15-14.8C527,414,520.4,407.2,512.1,407z"/>
</svg>
