<?xml version="1.0" encoding="utf-8"?>
<!-- Generator: Adobe Illustrator 19.2.0, SVG Export Plug-In . SVG Version: 6.00 Build 0)  -->
<svg version="1.1" id="Layer_1" xmlns="http://www.w3.org/2000/svg" xmlns:xlink="http://www.w3.org/1999/xlink" x="0px" y="0px"
	 viewBox="0 0 451.3 455.9" style="enable-background:new 0 0 451.3 455.9;" xml:space="preserve">
<style type="text/css">
	.st0{fill:#FFFFFF;}
</style>
<path class="st0" d="M429.3,422.9c-115.1-1.8-194-20.2-241.4-56.2c-40.5-30.8-53.7-70-67.7-111.6c-6.2-18.4-12.6-37.4-21.4-55.1
	c-3-6-9.1-12.5-16.7-19.5c3-3,4.7-7.3,4.2-11.9c-0.9-8-8.1-13.8-16.1-12.9c-5.6,0.6-11.1-0.6-14.5-1.5c-0.5-0.6-0.9-1.3-1.3-1.9
	c4.6,0.8,9.4,1.3,14.3,1.3c4.8,0,9.8-0.5,14.7-1.6c7.8-1.8,12.7-9.7,10.9-17.5c-1.8-7.8-9.7-12.7-17.5-10.9
	c-11.7,2.7-26.4-1.7-34.9-5.2c-0.1-1.2-0.2-2.3-0.3-3.5c7.6,4,17.2,7.1,28.7,7.1c3.1,0,6.3-0.2,9.7-0.7c8-1.2,13.5-8.6,12.3-16.5
	c-1.2-8-8.6-13.5-16.5-12.3c-15,2.2-25.2-5.5-29.5-9.6c0.4-1.1,0.7-1.8,0.9-2.2c0.3-0.1,0.6-0.3,0.9-0.5c0.6,0.5,1.2,1,1.9,1.5
	c5.7,4.1,15.3,8.9,29.2,8.9c0.6,0,1.2,0,1.8,0c7.8-0.2,13.9-6.5,14.1-14.2c12.7,3.2,27.1,9.9,42.5,22.9c2.3,23.6,6.7,56.9,18.3,91.7
	c15.8,47.5,40.4,84.6,73.3,110.2c35.6,27.7,80.4,41.7,133.6,41.7c18.1,0,37.2-1.6,57.3-4.9c7.9-1.3,13.3-8.8,12.1-16.7
	c-1.3-7.9-8.8-13.3-16.7-12.1c-70.6,11.4-127.3,1-168.3-31.1c-28.2-22-49.6-54.4-63.5-96.4c-9.4-28.2-13.5-55.8-16.1-76.9
	c-2.4-19.9-2.1-19.9-2.1-19.9c-1.2-14.4-1.1-37.1,7.1-57.7c3-7.5-0.6-16-8.1-19c-7.5-3-16,0.6-19,8.1c-6.3,15.5-8.8,31.7-9.6,46
	c-26.2-15.7-49.6-18.3-66.2-17.1c-23.9,1.7-39.2,11.3-40.8,12.4c-2.6,1.7-7.4,9.1-8,10.5c-0.8,1.7-7.9,17.3-8.5,39.5
	c-0.6,21,4.7,51.8,33.4,79.6c1.6,1.6,3.9,3.6,6.9,6.1c4.9,4.3,18,15.7,20.2,20c8,15.8,13.7,33,19.8,51.3c14,41.9,30,89.4,77.7,125.6
	c25.4,19.3,57.2,33.7,97.2,43.9C311.5,445,364.3,451,428.9,452c0.1,0,0.2,0,0.2,0c7.9,0,14.4-6.4,14.6-14.3
	C443.8,429.6,437.4,423,429.3,422.9z"/>
</svg>
