<svg id="Lager_1" data-name="Lager 1" xmlns="http://www.w3.org/2000/svg" xmlns:xlink="http://www.w3.org/1999/xlink" viewBox="0 0 1126.44 173.99"><defs><style>.cls-1{fill:none;}.cls-2{clip-path:url(#clip-path);}.cls-3{fill:#fff;}.cls-4{fill:#fde232;}</style><clipPath id="clip-path"><rect class="cls-1" x="6.46" y="13.81" width="1112" height="150"/></clipPath></defs><title>Logo_takeover_YELLOW w shadow</title><g class="cls-2"><path class="cls-3" d="M235.94,163.42l0.59,0.39,0.2-.2-0.4-.59Zm221.27,0,0.59,0.39,0.2-.2-0.4-.59Zm288.23,0,0.59,0.39,0.2-.2-0.4-.59Zm-221.87,0,0.59,0.39,1.19-1.18-0.59-.39Zm500.39,0,0.59,0.39,1.19-1.18-0.59-.39Zm-844.68,0,0.59,0.39,1.39-1.18-0.59-.59Zm204.43,0,0.59,0.39,1.19-1.18-0.59-.59Zm299.52,0,0.59,0.39,2.38-2.36-0.59-.59Zm-575.86,0,0.59,0.39,3.17-3.15-0.59-.39Zm-75.48,0,0.59,0.39,3.76-3.74-0.59-.59Zm566,0,0.59,0.39,3.77-3.74-0.59-.59Zm225.83,0,0.59,0.39,4-3.74-0.59-.59Zm-689.17,0,0.59,0.39,4-3.94-0.59-.59Zm348.84,0,0.59,0.39,4-3.94-0.59-.59Zm159.66,0,0.59,0.39,4-3.94-0.59-.59Zm340.73,0,0.59,0.39,4-3.94-0.59-.59Zm-921.15,0,0.59,0.39,4.16-4.13-0.59-.59Zm112.13,0,0.59,0.39,5.55-5.31-0.59-.59Zm56.85,0,0.59,0.39,5.74-5.71-0.59-.39Zm221.27,0,0.59,0.39,5.75-5.71-0.59-.39Zm66.36,0,0.59,0.39,5.55-5.51-0.4-.59Zm221.87,0,0.59,0.39,5.74-5.71-0.59-.39Zm278.52,0,0.59,0.39,5.55-5.51-0.4-.59Zm-151.15,0,0.59,0.39,6.34-6.3-0.59-.59Zm-489.3,0,0.59,0.39,7.53-7.48-0.59-.59Zm-276.14,0,0.59,0.39,7.92-7.68-0.59-.59Zm575.86,0,0.59,0.39,7.92-7.68-0.59-.59Zm-651.54,0,0.59,0.39,9.31-9.06-0.59-.59Zm566,0,0.59,0.39,9.31-9.06-0.59-.59Zm-463.34,0,0.59,0.39,9.51-9.25-0.59-.59Zm348.84,0,0.59,0.39,9.51-9.25-0.59-.59Zm159.66,0,0.59,0.39,9.51-9.25L648,154Zm340.73,0,0.59,0.39,9.51-9.25L988.7,154Zm-808.82,0,0.59,0.39,9.71-9.45-0.59-.59Zm344.29,0,0.59,0.39,10.1-10-0.59-.39Zm304.47,0,0.59,0.39,9.91-9.84-0.59-.59Zm195.92,0,0.59,0.39,10.1-10-0.59-.39Zm-956.8,0,0.4,0.39,10.5-10.24L68.55,153Zm168.78,0,0.59,0.39,11.09-11-0.59-.59Zm221.27,0,0.59,0.39,11.09-11-0.59-.59Zm288.23,0,0.59,0.39,11.09-11-0.59-.59Zm-638.07,0,0.59,0.39,12.68-12.4-0.59-.59Zm765.64,0,0.59,0.39,12.68-12.6-0.4-.59Zm-189.78,0,0.59,0.39,13.27-13.19L687.6,150Zm-508.51,0,0.59,0.39,13.67-13.58-0.4-.59Zm209,0,0.59,0.39L389.27,150l-0.59-.59Zm135.5,0,0.59,0.39,14.46-14.37-0.4-.59Zm500.39,0,0.59,0.39,14.46-14.37-0.4-.59Zm-987.91,0,0.59,0.39,14.86-14.57-0.59-.59Zm566,0,0.6,0.39L604,149.25l-0.59-.59Zm-463.14,0,0.4,0.39L141.05,149l-0.59-.59Zm348.84,0,0.4,0.39L489.9,149l-0.59-.59Zm159.66,0,0.4,0.39L649.56,149l-0.59-.59Zm340.73,0,0.4,0.39L990.29,149l-0.59-.59Zm-160.06,0,0.59,0.39,15.85-15.75-0.4-.59Zm-619,0,0.4,0.39,16.24-16.14-0.4-.39Zm4.36,0,0.59,0.39,16.24-16.14-0.59-.39Zm4.56,0,0.59,0.39,16.24-16.14-0.59-.39Zm4.36,0,0.59,0.39,16.24-16.14-0.59-.39Zm4.56,0,0.59,0.39,16.24-16.14-0.59-.39Zm4.56,0,0.59,0.39L235,147.67l-0.59-.39Zm4.36,0,0.59,0.39,16.24-16.14-0.59-.39Zm66.75-.2,0.59,0.59,16.24-16.14-0.59-.39Zm4.56,0.2,0.59,0.39,16.24-16.14-0.59-.39Zm123.21,0,0.4,0.39,16.24-16.14-0.4-.39Zm4.36,0,0.59,0.39,16.24-16.14-0.59-.39Zm4.56,0,0.59,0.39,16.24-16.14-0.59-.39Zm4.36,0,0.59,0.39,16.24-16.14-0.59-.39Zm4.56,0,0.59,0.39,16.24-16.14-0.59-.39Zm4.56,0,0.59,0.39,16.24-16.14-0.59-.39Zm4.36,0,0.59,0.39,16.24-16.14-0.59-.39Zm261.49,0,0.4,0.39,16.24-16.14-0.4-.39Zm4.36,0,0.59,0.39,16.24-16.14-0.59-.39Zm4.56,0,0.59,0.39L731,147.67l-0.59-.39Zm4.36,0,0.59,0.39,16.24-16.14-0.59-.39Zm4.56,0,0.59,0.39,16.24-16.14-0.59-.39Zm4.56,0,0.59,0.39,16.24-16.14-0.59-.39Zm4.36,0,0.59,0.39,16.24-16.14-0.59-.39Zm178.48-.2,0.59,0.59,16.24-16.14-0.59-.39Zm4.56,0.2,0.59,0.39,16.24-16.14-0.59-.39Zm129.16,0,0.4,0.39,16.24-16.14-0.4-.39Zm4.36,0,0.59,0.39,16.24-16.14-0.59-.39Zm4.56,0,0.59,0.39,16.24-16.14-0.59-.39Zm-999.39,0,0.59,0.39,16.44-16.34-0.59-.59Zm267,0,0.59,0.39L338,147.28l-0.59-.59Zm621.23,0,0.59,0.39,16.64-16.54-0.59-.59Zm138.07,0,0.59,0.39,16.84-16.73-0.59-.59Zm-22.58,0,0.59,0.39,17-16.93-0.59-.59Zm-963.34,0,0.59,0.39,17.43-17.13-0.59-.59Zm193.14-2.56,0.59,0.59,14.86-15-0.59-.59Zm621.23,0,0.59,0.59,14.86-15-0.59-.59Zm-747,2.56,0.59,0.39,17.83-17.72-0.59-.59Zm136.68,0,0.59,0.39,18-17.91-0.59-.59Zm621.23,0,0.59,0.39,18-17.91-0.59-.59Zm-249.4,0,0.59,0.39,18.82-18.5-0.59-.59Zm-163.43-.79,0.59,0.59,18.23-18.31-0.59-.39Zm500.39,0,0.6,0.59,18.22-18.31-0.59-.39Zm-147.38.79,0.59,0.39,19.22-19.09-0.59-.59ZM285.26,158.3l0.59,0.59,14.86-14.76-0.4-.59Zm621.23,0,0.59,0.59,14.86-14.76-0.4-.59ZM18.43,163.42L19,163.81l20-19.88-0.4-.59Zm566,0,0.6,0.39,20.2-19.88-0.59-.59Zm-463.34,0,0.59,0.39L142,143.73l-0.59-.59Zm70.13,0,0.59,0.39L212,143.73l-0.59-.59Zm179.08,0,0.59,0.39L391,143.73l-0.59-.59Zm42.19,0,0.59,0.39,20.21-20.08-0.59-.59Zm57.45,0,0.59,0.39,20.21-20.08-0.4-.59Zm159.66,0,0.59,0.39,20.4-20.08-0.59-.59Zm71.12,0,0.59,0.39,20.21-20.08-0.59-.59Zm269.61,0,0.59,0.39,20.21-20.08-0.4-.59Zm69.33,0,0.59,0.39,20.21-20.08-0.59-.59ZM90.74,162l0.59,0.59L112.13,142l-0.4-.59Zm70.13-2.56,0.59,0.59L179.68,142l-0.59-.59Zm155.3,3.94,0.59,0.39,22-21.85-0.4-.59Zm494.05,0,0.59,0.39,22-21.85-0.59-.59Zm127.18,0,0.59,0.39L960,142l-0.4-.59Zm138.07,0,0.59,0.39,22.39-22-0.59-.59Zm-1026.33,0,0.59,0.39,22.78-22.44-0.59-.59Zm309.23-6.1,0.59,0.59,17.23-17.32-0.4-.59Zm148,1,0.59,0.39,18.23-18.11-0.59-.59Zm294.17-3,0.59,0.39,15.25-15.16-0.59-.59Zm206.22,3,0.6,0.39,18.22-18.11L1025,140ZM666.6,162.24l0.59,0.59,23-23-0.4-.59Zm181.26-4.92,0.59,0.39,18.23-18.11-0.4-.59Zm-564.58-1.38,0.59,0.59L301.51,139l-0.59-.59Zm621.23,0,0.59,0.59L922.74,139l-0.59-.59ZM16.45,160.86L17,161.45l23-23-0.59-.59Zm172.94-.2,0.59,0.59,23-22.83-0.59-.59Zm221.27,0,0.59,0.59,23-22.83-0.59-.59Zm171.75,0.2,0.6,0.59,23-23-0.4-.59Zm116.48-.2,0.59,0.59,23-22.83-0.59-.59ZM855,163.42l0.59,0.39,25.56-25.39-0.4-.59Zm182.84-2.76,0.59,0.59,23-22.83-0.6-.59Zm-918.57,0,0.59,0.59,23-23-0.4-.59Zm348.84,0,0.59,0.59,23-23-0.59-.59Zm159.66,0,0.59,0.59,23-23-0.4-.59Zm340.73,0,0.59,0.59,23-23-0.59-.59Zm-807.83-5.51,0.59,0.59,18-17.91-0.59-.59Zm205,8.27,0.59,0.39,26.55-26.38-0.59-.59Zm-274.56-6.1,0.59,0.59,20.8-20.67-0.59-.59Zm220.48,6.1,0.59,0.39,27.54-27.36-0.59-.39Zm621.23,0,0.59,0.39L961,136.45l-0.59-.39Zm-426.5-9.65,0.59,0.59,18.23-18.31-0.59-.39Zm500.39,0,0.6,0.59,18.22-18.31-0.59-.39Zm64.18,9.65,0.59,0.39,27.73-27.56-0.59-.59Zm-265.25,0,0.59,0.39,27.93-27.76-0.4-.59ZM358.76,152.59l0.59,0.39,17.43-17.32-0.59-.39Zm442-2,0.59,0.59,15.45-15.55-0.59-.59Zm-753.16,10,0.59,0.39,26-25.79-0.59-.59Zm800.71-8.27,0.59,0.39,18.23-18.11-0.59-.59Zm-180.86,4.33,0.59,0.59,23-22.83-0.4-.59ZM160.47,151l0.59,0.59,17.83-17.91-0.59-.59Zm120.83,2.56L281.9,154l20.6-20.47-0.59-.39Zm621.23,0,0.59,0.39,20.6-20.47-0.59-.39Zm-885.09,2,0.4,0.39L41,133.1l-0.59-.59Zm566,0,0.6,0.39,23-22.83-0.4-.59Zm-463.14-.39,0.59,0.59,23-22.83-0.59-.59Zm70.13,0,0.59,0.59,23-22.83-0.59-.59Zm221.27,0,0.59,0.59,23-22.83-0.59-.59Zm57.45,0,0.59,0.59,23-22.83-0.59-.59Zm159.66,0,0.59,0.59,23-22.83-0.4-.59Zm71.12,0,0.59,0.59,23-22.83-0.59-.59Zm269.61,0,0.59,0.59,23-22.83-0.59-.59Zm69.33,0,0.59,0.59,23-22.83-0.59-.59ZM91.53,152.4L92.12,153l20.6-20.47-0.59-.59Zm759.1,11,0.59,0.39,32.09-31.89-0.59-.59Zm-344.29-14,0.59,0.39,18.23-18.11-0.59-.59Zm500.39,0,0.6,0.39,18.22-18.11-0.59-.59Zm-645.4,14,0.59,0.39,32.88-32.68-0.59-.39Zm-54.08,0,0.59,0.39,32.88-32.68-0.4-.59Zm621.23,0,0.59,0.39L962,131.14l-0.4-.59ZM359,147.67l0.59,0.59L377,130.94l-0.59-.59Zm707.6,15.75,0.6,0.39,33.28-32.87-0.6-.59ZM800.91,145.9l0.59,0.59,15.65-15.75-0.4-.59Zm0.4,17.52,0.59,0.39L836,130l-0.59-.59Zm47.35-15.94,0.59,0.39,18-17.91-0.59-.59Zm-688.38-.79,0.59,0.59,17.63-17.72-0.4-.59ZM49.33,154.17l0.59,0.59,26-25.59-0.59-.59Zm619-2.76L669,152l23-23-0.4-.59Zm-388.47-1,0.4,0.59,23-22.83-0.4-.59Zm621.23,0,0.4,0.59,23-22.83-0.4-.59ZM91.93,147.67l0.59,0.39,20.4-20.28-0.59-.59ZM18.43,150l0.4,0.59,23.18-23L41.41,127Zm172.94-.2,0.59,0.59,23-23-0.59-.39Zm221.27,0,0.59,0.59,23-23-0.59-.39Zm57.45,0,0.59,0.59,23-23-0.59-.39Zm114.3,0.2,0.6,0.59,23-23-0.4-.59Zm116.48-.2,0.59,0.59,23-23-0.59-.39Zm269.61,0,0.59,0.59,23-23-0.59-.39Zm69.33,0,0.59,0.59,23-22.83-0.59-.59Zm-533.47-4.92,0.59,0.59,18.23-18.31-0.59-.39Zm123.41,4.92,0.59,0.59,23-23-0.59-.59Zm377-4.92,0.6,0.59,18.22-18.31-0.59-.39Zm-885.49,4.92,0.59,0.59,23.77-23.62-0.59-.59Zm238.11-6.89,0.59,0.59L377.58,126l-0.59-.59Zm441.76-1.77,0.59,0.59,15.85-15.94-0.4-.39ZM302.7,163.42l0.59,0.39,38.43-38.19-0.59-.39Zm621.23,0,0.59,0.39L963,125.62l-0.59-.39ZM159.87,142.55l0.59,0.39,17.63-17.52-0.59-.39Zm687.39,19.69,0.59,0.39,37.24-37-0.4-.59ZM1062,163.42l0.59,0.39,38.63-38.39-0.59-.59ZM849.25,142.36l0.59,0.59,18-17.91-0.59-.39ZM358.16,162l0.59,0.59,37.84-37.8-0.59-.39Zm442-2.17,0.59,0.59L837.36,124l-0.59-.59ZM669.37,146.1l0.59,0.39,23-22.83-0.59-.59ZM92.32,142.75l0.59,0.59,20.21-20.28-0.4-.59Zm188.39,2.36,0.59,0.59,23-23-0.59-.39Zm225.63-4.53,0.59,0.39,18.23-18.11-0.59-.59Zm395.6,4.53,0.59,0.59,23-23-0.59-.39Zm104.79-4.53,0.6,0.39,18.22-18.11-0.59-.59ZM19.22,144.72l0.59,0.39L43,122.28l-0.59-.59Zm566,0,0.59,0.39,23-22.83-0.4-.59Zm-392.82-.2,0.4,0.39,23.18-22.83-0.59-.59Zm221.27,0,0.4,0.39,23.18-22.83-0.59-.59Zm57.45,0,0.4,0.39,23.18-22.83-0.59-.59Zm159.66,0,0.4,0.39,23.18-22.83-0.59-.59Zm71.12,0,0.4,0.39,23.18-22.83-0.59-.59Zm269.61,0,0.4,0.39L995,122.08l-0.59-.59Zm69.33,0,0.4,0.39,23.18-22.83-0.59-.59Zm-881.13-6.3,0.59,0.59,17.43-17.32-0.59-.59Zm199.87,0,0.59,0.59,17.63-17.52-0.59-.59Zm441.76-1.77L801.9,137l16.24-15.94-0.59-.59Zm-482.36,6.3,0.59,0.59,23.18-23-0.59-.59Zm530.7-5.31,0.59,0.59,17.83-17.72-0.59-.59Zm90.53,5.31,0.59,0.59,23.18-23-0.59-.59Zm138.27-.2,0.59,0.59,23.18-23-0.59-.59ZM867.08,138l0.59,0.39,19.41-19.29-0.59-.59ZM376,139.8l0.59,0.59,21.79-21.65-0.59-.59Zm130.35-3.74,0.59,0.59,18.23-18.31-0.59-.39Zm500.39,0,0.6,0.59,18.22-18.31-0.59-.39Zm-914,1.77,0.59,0.59,20.21-20.08-0.59-.59Zm577.65,2.76,0.59,0.59,23-23-0.59-.39Zm146.2-1.38,0.59,0.59,22-21.85-0.59-.59Zm-657.08-5.31,0.59,0.59,17.23-17.13-0.4-.59ZM281.7,139.6l0.59,0.59,23-22.83-0.59-.59Zm621.23,0,0.59,0.59,23-22.83-0.59-.59Zm-780.69,4.92,0.4,0.39,28.13-27.76-0.59-.59Zm-102-5.31,0.59,0.59,23.18-23-0.59-.39Zm566,0,0.59,0.59,23-23-0.4-.39Zm-114.3-.2,0.59,0.59,23.18-23-0.59-.39Zm500.39,0,0.59,0.59,23.18-23-0.59-.39Zm69.33,0,0.59,0.59,23-22.83-0.4-.59Zm-848.44,0,0.59,0.59,23.18-23-0.59-.59Zm221.27,0L415,139.6l23.18-23L437.6,116Zm217.11,0,0.59,0.59,23.18-23-0.59-.59Zm71.12,0,0.59,0.59,23.18-23-0.59-.59ZM359.95,133.5l0.59,0.59,17.83-17.72-0.59-.59Zm441.56-1.57,0.59,0.39,16.44-16.14-0.59-.59ZM850,132.51l0.59,0.59,17.83-17.52-0.59-.59Zm-530.11,4.92,0.59,0.39L343.7,115l-0.59-.59Zm621.23,0,0.59,0.39L964.94,115l-0.59-.59Zm138.27-.39,0.59,0.59,23.18-23-0.59-.39Zm-573.09-5.31,0.59,0.39L525.16,114l-0.59-.59Zm500.39,0,0.6,0.39L1025.55,114l-0.59-.59ZM93.11,133.1l0.59,0.39,20-19.88-0.59-.59Zm66.17-3.35,0.59,0.59,17.23-17.13-0.59-.59Zm512.07,5.51,0.59,0.39,23-22.83-0.59-.59Zm197.31-3.35,0.59,0.59,19.81-19.69-0.59-.59ZM377.78,133.7l0.59,0.39,22-21.65-0.59-.59Zm-95.09.59,0.59,0.59,23-23-0.59-.39Zm535.65-1.18,0.59,0.59L840.73,112l-0.59-.59Zm85.58,1.18,0.59,0.59,23-23-0.59-.39Zm-543.78-5.51,0.59,0.59,17.83-17.91-0.59-.39ZM21.2,133.89l0.59,0.39,23-22.83-0.4-.59Zm566,0,0.59,0.39,23-22.83-0.4-.59Zm-393-.2,0.59,0.39,23.18-22.83-0.59-.59Zm221.27,0,0.59,0.39,23.18-22.83-0.59-.59Zm57.45,0,0.59,0.39,23-22.83-0.4-.59Zm159.66,0,0.59,0.39,23.18-22.83-0.59-.59Zm71.12,0,0.59,0.39,23.18-22.83-0.59-.59Zm98.26-6.5,0.59,0.59,16.64-16.54-0.59-.59Zm171.35,6.5,0.59,0.39,23-22.83-0.4-.59Zm69.33,0,0.59,0.39,23-22.83-0.4-.59Zm-192-6.1,0.59,0.59,17.63-17.52-0.59-.59Zm-344.49-.39,0.59,0.59L525,109.48l-0.59-.39Zm500.39,0,0.59,0.59,18.23-18.31-0.59-.39Zm-685.61,4.72,0.59,0.59,23.18-23-0.59-.59Zm621.23,0,0.59,0.59,23.18-23-0.59-.59ZM55.08,135.27l0.59,0.59,26.74-26.77-0.59-.39Zm-2,6.3,0.59,0.59L87,109.09l-0.59-.39Zm-1.78,6.3,0.59,0.59,39.42-39.37-0.59-.39Zm1029.11-16.14,0.59,0.59,23.18-23-0.59-.59ZM93.51,128.18l0.59,0.59,19.81-19.88-0.59-.39Zm65.57-2.76,0.59,0.59,17-16.93-0.59-.59ZM123,139l0.59,0.59,32.29-32.09-0.59-.59Zm549.32-9.25,0.59,0.59,23-23-0.59-.39ZM360.54,124l0.59,0.59,18-17.91-0.59-.59Zm-76.86,4.72,0.59,0.59,23-22.83-0.59-.59Zm621.23,0,0.59,0.59,23-22.83-0.59-.59Zm-102.81-6.3,0.59,0.59,16.84-16.73-0.59-.59Zm68.35,3.35,0.59,0.59,20.21-20.08-0.59-.59ZM22.19,128.38L22.79,129l23-23-0.59-.39Zm357.17-.79L380,128l22-21.85-0.4-.59Zm208.79,0.79,0.59,0.59,23-23-0.4-.39Zm231.78-1.57,0.59,0.59,21.59-21.46-0.59-.39Zm-346.08,1.38,0.59,0.59,23-22.83-0.59-.59ZM851,122.67l0.59,0.59,17.43-17.32-0.4-.59Zm123.21,5.51,0.59,0.59,23-22.83-0.59-.59Zm69.33,0,0.59,0.59,23-22.83-0.6-.59Zm-848.44,0,0.59,0.59,23.18-23-0.59-.59Zm221.27,0,0.59,0.59,23.18-23-0.59-.59Zm217.11,0,0.59,0.59,23.18-23-0.59-.59Zm71.12,0,0.59,0.59,23.18-23-0.59-.59Zm-198.49-5.31,0.59,0.39L525,105.15l-0.59-.59Zm500.39,0,0.59,0.39,18.23-18.11-0.59-.59Zm-847.65-1.57,0.59,0.39L176.32,105l-0.4-.59ZM56.86,129l0.59,0.59,25-25-0.4-.39Zm35.66-4.13,0.59,0.39,21.2-21.06-0.59-.39Zm229.39,1.77,0.59,0.39,23-22.83-0.4-.59Zm621.23,0,0.59,0.39,23-22.83-0.4-.59Zm138.27-.39,0.59,0.59L1105,104l-0.4-.59Zm-408.08-1.77,0.59,0.39,23-22.83-0.59-.59Zm-312.6-5.12,0.59,0.59,18-18.11-0.59-.59Zm441.56-1.57,0.59,0.59,17-16.93-0.59-.59Zm-517.63,5.71,0.4,0.59,23.18-22.83-0.59-.59Zm621.23,0,0.4,0.59,23.18-22.83-0.59-.59Zm-54.28-5.71,0.59,0.59L869.65,101l-0.59-.59ZM158.69,117l0.59,0.59,16.84-16.73-0.59-.59Zm347.46,1.38,0.59,0.59L525,100.62l-0.59-.39Zm500.39,0,0.59,0.59,18.23-18.31-0.59-.39ZM23.18,123.07l0.59,0.39,23-22.83L46.16,100Zm566,0,0.59,0.39,23-22.83-0.4-.59Zm-393-.2,0.59,0.39,23.18-22.83-0.59-.59Zm221.27,0,0.59,0.39,23.18-22.83-0.59-.59Zm57.45,0,0.59,0.39,23-22.83-0.59-.59Zm159.66,0,0.59,0.39,23.18-22.83-0.59-.59Zm71.12,0,0.59,0.39,23.18-22.83-0.59-.59Zm269.61,0,0.59,0.39,23-22.83-0.59-.59Zm69.33,0,0.59,0.39,23-22.83-0.59-.59ZM821.71,120.7l0.59,0.59L843.7,100l-0.59-.59Zm50.32-.79,0.59,0.39L893,100l-0.4-.59Zm-490.89,1.38,0.59,0.59,22.19-22-0.59-.59ZM88,124.84l0.59,0.39,26-25.59L113.91,99Zm234.74-3.74,0.59,0.59,23-23-0.4-.39Zm621.23,0,0.59,0.59,23-23-0.4-.39ZM58.84,122.67l0.59,0.59L84.2,98.46l-0.59-.39ZM1082.4,120.9l0.59,0.59,23-23-0.4-.59Zm-721.27-6.3,0.59,0.39L380,97.08l-0.59-.59Zm-202.65-2,0.59,0.59,16.64-16.54-0.59-.59Zm515.84,6.3,0.59,0.59,23-22.83-0.59-.59Zm128.17-5.71,0.59,0.39,17.23-17.13-0.59-.59Zm49.53-.39,0.59,0.59,17.23-17.13-0.4-.59Zm-566.56,5.31,0.59,0.39L309,95.7l-0.59-.59Zm621.23,0,0.59,0.39,23-22.83-0.59-.59Zm-882.52-.59,0.4,0.59,23.18-23-0.59-.39Zm566,0,0.59,0.59,23-23-0.4-.39Zm455.42-.2,0.59,0.59,23-23-0.59-.39Zm-962,7.48,0.59,0.39,30.71-30.31-0.59-.59ZM823.49,114.6l0.59,0.59,21.2-21.26-0.59-.39Zm-440.77.59,0.59,0.59,22.39-22.24-0.59-.59Zm490.88-1.38,0.59,0.59L895,93.54l-0.59-.59Zm-549.92,2,0.59,0.39,23-22.83-0.4-.59Zm621.23,0,0.59,0.39,23-22.83-0.4-.59Zm138.27-.39,0.59,0.59,23-22.83-0.4-.59ZM158.29,108.5l0.59,0.59,16.44-16.54L174.73,92Zm83-12.8,0.59,0.39,3.57-3.54L244.86,92Zm221.27,0,0.59,0.39,3.57-3.54L466.13,92Zm288.23,0,0.59,0.39L755,92.55,754.36,92ZM60.63,116.37l0.59,0.39L85.78,92.36l-0.59-.59Zm300.71-6.69,0.59,0.59,18.23-18.11-0.59-.59Zm441.36-1.18,0.59,0.59,17.43-17.52-0.59-.39Zm49.72-.59L853,108.5l17.23-17.13-0.59-.59Zm-177.3,5.71,0.59,0.39,23-22.83-0.59-.59Zm-388.66-1,0.59,0.59,23-22.83-0.59-.59Zm621.23,0,0.59,0.59,23-22.83-0.59-.59ZM79,124.84l0.59,0.39,35.46-35-0.59-.59ZM25,112.24l0.59,0.59,23.18-23-0.59-.59Zm566,0,0.59,0.59,23-23-0.39-.59ZM128,112l0.59,0.59L151.75,89.4,151.16,89Zm918.57,0,0.59,0.59,23-23-0.4-.59Zm-888.46-7.87,0.59,0.59,16.44-16.34L174.53,88Zm166.6,6.1,0.59,0.59,23-23-0.4-.39Zm500.59-2,0.59,0.59,21-20.87-0.59-.59Zm120.64,2,0.59,0.59,23-23-0.4-.39Zm138.27-.2,0.59,0.59,23-23-0.4-.59ZM236.93,95.7l0.59,0.39,8.91-8.86-0.4-.59ZM361.73,105l0.59,0.59,18.42-18.31-0.59-.59Zm22.78,4.13,0.59,0.59,22.58-22.44-0.59-.59ZM458.2,95.7l0.59,0.39,8.91-8.86-0.4-.59Zm288.23,0L747,96.1l8.91-8.86-0.4-.59Zm128.76,12,0.59,0.59L897,87.24l-0.59-.59Zm-72.31-3.94,0.59,0.59,17.63-17.52-0.59-.59ZM853,103l0.59,0.59,17-16.93L870,86.06Zm-790.4,6.89,0.59,0.59L87.57,86.25,87,85.66Zm613.5-1.77,0.59,0.59,23-22.83-0.59-.59ZM95.49,104l0.59,0.59L115.3,85.47l-0.59-.59Zm192,3.35,0.59,0.59,23-23-0.59-.59ZM476.82,112l0.59,0.59,27.93-28-0.59-.39Zm-1,5.31,0.59,0.59,33.28-33.27-0.4-.39Zm22.39-17.72,0.59,0.39,15.45-15.35-0.59-.39Zm410.46,7.68,0.59,0.59,23-23-0.59-.59ZM977.21,112l0.59,0.59,27.93-28-0.59-.39Zm-1,5.31,0.59,0.59,33.28-33.27-0.4-.39Zm22.39-17.72L999.2,100l15.45-15.35-0.59-.39ZM26,106.73l0.59,0.59,23.18-23-0.59-.39Zm98.06,27,0.59,0.39,50.12-49.8-0.59-.39Zm467.9-27,0.59,0.59,23-23-0.39-.39Zm-114.3-.2,0.59,0.59,23.18-23-0.59-.39Zm500.39,0,0.59,0.59,23.18-23-0.59-.39Zm69.33,0,0.59,0.59,23-23-0.4-.39Zm-918.57,0,0.59,0.59,23.18-23L152,83.5ZM506.14,114l0.59,0.39,31.7-31.5-0.59-.59Zm500.39,0,0.59,0.39,31.7-31.5-0.59-.59ZM325.68,105l0.59,0.59,23-23-0.59-.59Zm36.25-4.72,0.59,0.59,18.42-18.31-0.59-.59Zm585,4.72,0.59,0.59,23-23-0.59-.59Zm138.27-.2,0.59,0.39,23-22.83-0.59-.59ZM826.86,102.2l0.59,0.59,20.8-20.87-0.59-.39ZM232.38,95.7L233,96.1l14.46-14.17-0.59-.59Zm221.27,0,0.59,0.39L468.7,81.92l-0.59-.59Zm288.23,0,0.59,0.39,14.46-14.17-0.59-.59ZM803.09,99l0.59,0.59,17.83-17.72-0.59-.59Zm50.32-1L854,98.66l17-16.93-0.59-.39ZM386.1,103l0.59,0.59,22.78-22.64-0.59-.59ZM95.89,99l0.59,0.59,19-18.9-0.59-.59Zm541.39,7.48,0.59,0.59,26.55-26.57-0.4-.39ZM636.49,112l0.59,0.59,32.09-32.09-0.59-.39Zm-1,5.31,0.59,0.59,37.44-37.4-0.4-.39Zm25.36-20.67,0.59,0.39,16.64-16.54-0.59-.39Zm215.93,4.92,0.59,0.59L899,80.74l-0.59-.59ZM677.1,102.79l0.59,0.39,23-22.83-0.59-.59Zm-612.71.79L65,104.17l24.17-24-0.59-.59Zm134.51,3,0.59,0.59L226.63,80l-0.4-.39ZM198.11,112l0.59,0.59L231.39,80l-0.59-.39Zm-1,5.31,0.59,0.59,38-38-0.4-.39ZM223.46,95.7l0.59,0.39L240.3,80l-0.59-.39Zm4.56,0,0.59,0.39L244.86,80l-0.59-.39Zm192.15,10.83,0.59,0.59L447.9,80l-0.4-.39ZM419.37,112l0.59,0.59L452.65,80l-0.59-.39Zm-1,5.31,0.59,0.59,38-38-0.4-.39ZM444.73,95.7l0.59,0.39L461.57,80,461,79.56Zm4.56,0,0.59,0.39L466.13,80l-0.59-.39ZM708.4,106.53l0.59,0.59L736.13,80l-0.4-.39ZM707.61,112l0.59,0.59L740.89,80l-0.59-.39Zm-1,5.31,0.59,0.59,38-38-0.4-.39ZM733,95.7l0.59,0.39L749.8,80l-0.59-.39Zm4.56,0,0.59,0.39L754.36,80l-0.59-.39ZM125,128.18l0.59,0.59L174.73,80l-0.59-.59Zm163.43-26.38L289,102.4l23-22.83L311.41,79Zm621.23,0,0.59,0.59,23-22.83L932.64,79Zm-882.72-.39L27.54,102,50.72,79l-0.59-.59Zm566,0L593.5,102l23-23-0.39-.59Zm-463.15-.2,0.59,0.59,23.18-23-0.59-.59Zm70.13,0,0.59,0.59,23-23-0.59-.59Zm221.27,0,0.59,0.59,23-23-0.59-.59Zm57.45,0,0.59,0.59,23.18-23-0.59-.59Zm159.66,0,0.59,0.59,23.18-23-0.59-.59Zm71.12,0,0.59,0.59,23-23-0.59-.59Zm269.61,0,0.59,0.59,23.18-23-0.59-.59Zm69.33,0,0.59,0.59,23-23-0.4-.59Zm-686-5.71,0.59,0.59,18.62-18.5L380.94,77Zm143.82,14,0.59,0.59,32.69-32.48L538.83,77Zm500.39,0,0.59,0.59,32.69-32.48-0.59-.59Zm-679.87-10,0.59,0.59,23-22.83-0.59-.59Zm621.23,0,0.59,0.59,23-22.83-0.59-.59ZM803.48,94.33l0.59,0.59,18-17.91-0.59-.59ZM854,93.14l0.59,0.59L871.43,77l-0.59-.59Zm232.17,6.1,0.59,0.59,23-23-0.59-.39ZM96.28,94.33l0.59,0.39L115.7,76l-0.59-.59ZM828.64,96.1l0.59,0.39L849.84,76l-0.4-.59ZM678.09,97.28l0.59,0.59,23-22.83-0.59-.59Zm-290.21-.39,0.59,0.59,23-22.83L410.86,74ZM878.37,95.7L879,96.1l22-21.65-0.59-.59Zm-812,1.57L67,97.87,90.93,74l-0.59-.59Zm223.05-.79L290,97.08l23-23-0.59-.59Zm621.23,0,0.59,0.59,23-23-0.59-.59ZM27.94,95.9l0.59,0.59,23-22.83-0.4-.59Zm566,0,0.59,0.59,23-22.83-0.4-.59Zm-393-.2,0.59,0.59,23-22.83-0.4-.59Zm221.27,0,0.59,0.59,23-22.83-0.4-.59Zm57.45,0,0.59,0.59,23.18-23-0.59-.39Zm230.78,0L711,96.29l23-22.83-0.4-.59ZM980,95.7l0.59,0.59,23.18-23-0.59-.39Zm69.33,0,0.6,0.59,23.18-23-0.6-.39Zm-918.57,0,0.59,0.59,23.18-23-0.59-.59Zm508.51,0,0.59,0.59,23.18-23-0.59-.59ZM362.52,90.78l0.59,0.59,18.62-18.5-0.59-.59Zm143.62,14.37,0.59,0.39,33.68-33.46-0.59-.39ZM854.4,88.22L855,88.81l16.84-16.73-0.59-.39Zm152.14,16.93,0.59,0.39,33.68-33.46-0.59-.39ZM803.68,89.8l0.59,0.39L822.5,72.08l-0.59-.59Zm-476,4.33,0.59,0.59,23-23-0.59-.59Zm621.23,0,0.59,0.59,23-23-0.59-.59Zm138.27-.2,0.59,0.39,23-22.83-0.59-.59ZM96.68,89.4L97.27,90l18.82-18.7-0.59-.59ZM126,122.87l0.59,0.39,52.5-52-0.59-.59ZM830.43,89.8L831,90.39l20.6-20.47L851,69.52Zm-156.1,6.89,0.59,0.39,27.73-27.56-0.59-.59ZM290.22,91l0.59,0.59,23-22.83-0.4-.59Zm621.23,0L912,91.57l23-22.83-0.4-.59Zm-522-.2,0.59,0.59,23-23-0.4-.39Zm-360.53-.2,0.59,0.59,23-23-0.59-.59Zm566,0,0.59,0.59,23-23-0.4-.59ZM68.15,91l0.59,0.59L92.52,67.95l-0.59-.59Zm63.59-.59L132.34,91l23.18-23-0.59-.59Zm70.13,0L202.46,91l23-23-0.4-.59Zm161-4.33,0.59,0.59,18.82-18.7-0.59-.59Zm60.22,4.33L423.73,91l23-23-0.4-.59Zm57.45,0L481.18,91l23.18-23-0.59-.59Zm159.66,0L640.85,91l23.18-23-0.59-.59Zm71.12,0L712,91l23-23-0.4-.59ZM880,89.6l0.59,0.59,22.19-22.24-0.4-.59Zm101,0.79L981.57,91l23.18-23-0.59-.59Zm69.33,0,0.59,0.59,23.18-23-0.59-.59ZM854.79,83.3l0.59,0.59L872,67.36l-0.59-.59Zm-50.91,1.77,0.59,0.59,18.42-18.5-0.4-.59ZM506.14,100.62l0.59,0.59L541.4,66.77l-0.59-.59Zm500.39,0,0.59,0.59,34.67-34.45-0.59-.59ZM97.08,84.48l0.59,0.59,18.62-18.5L115.7,66Zm231.37,4.13L329,89.21l23-22.83-0.59-.59Zm621.23,0,0.59,0.59,23-22.83-0.59-.59Zm138.47-.2,0.6,0.59,23-22.83-0.59-.59ZM669.77,96.69l0.59,0.39,33.28-32.87-0.59-.59Zm162.44-13,0.59,0.59L853.21,64l-0.59-.59Zm-541,2,0.59,0.59,23-23-0.4-.59Zm621.23,0L913,86.25l23-23-0.4-.59ZM363.12,81.33l0.59,0.59L382.53,63l-0.59-.59ZM29.92,85.07l0.59,0.59,23-22.83-0.59-.59Zm566,0,0.59,0.59,23-22.83-0.4-.59ZM127,117.36l0.59,0.59,55.67-55.31L182.66,62Zm75.87-32.48,0.59,0.59,23-23L226,62Zm221.27,0,0.59,0.59,23-23-0.4-.39Zm57.45,0,0.59,0.59,23.18-23L504.76,62Zm230.78,0L713,85.47l23-23-0.4-.39Zm143-6.5L856,79l16.44-16.34L872,62ZM982,84.88l0.59,0.59,23.18-23-0.59-.39Zm69.33,0,0.59,0.59,23.18-23-0.59-.39Zm-918.57,0,0.59,0.59,23.18-23-0.59-.59Zm508.51,0,0.59,0.59,23.18-23-0.59-.59Zm-250-.2,0.59,0.59L415,62l-0.59-.39Zm412.83-4.33,0.59,0.59,18.62-18.7-0.4-.59ZM70.13,84.68l0.59,0.59L94.3,61.85l-0.59-.59Zm27.34-4.92,0.59,0.39,18.42-18.31-0.59-.59ZM881.54,83.5l0.59,0.59,22.58-22.44-0.59-.59ZM502.77,99.64l0.59,0.39,39-38.58-0.59-.59Zm500.39,0,0.59,0.39,39-38.58-0.59-.59ZM329.44,83.3L330,83.89l23-23-0.59-.39Zm621.23,0,0.59,0.59,23-23-0.59-.39Zm138.47-.2,0.59,0.39,23-22.83-0.59-.59ZM665.41,96.69L666,97.08,704.63,58.7,704,58.11ZM363.51,76.61L364.11,77l19-18.7-0.59-.59Zm470.28,1L834.39,78,854.6,57.91,854,57.51ZM292.2,80.35l0.59,0.39,23-22.83-0.4-.59Zm621.23,0L914,80.74l23-22.83-0.4-.59Zm-57.64-6.89L856.38,74l16.44-16.34-0.59-.59Zm-51.51,2.17,0.59,0.59,18.82-18.9-0.4-.39ZM30.91,79.76l0.4,0.59,23.18-23-0.59-.59Zm566,0,0.59,0.59,23-23-0.4-.59Zm-499-4.92,0.59,0.59,18.23-18.31-0.4-.59Zm35.86,4.72,0.59,0.59,23.18-23-0.59-.59Zm70.13,0,0.59,0.59,23.18-23L227,56.53Zm221.27,0,0.59,0.59,23.18-23-0.59-.59Zm57.45,0,0.59,0.59,23.18-23-0.59-.59Zm159.66,0,0.59,0.59,23.18-23-0.59-.59Zm71.12,0,0.59,0.59,23.18-23-0.59-.59Zm269.61,0,0.59,0.59,23.18-23-0.59-.59Zm69.33,0,0.59,0.59,23.18-23-0.59-.59Zm-659.46-1,0.59,0.59L416.8,55.94l-0.59-.59Zm126.58-.2L520,79l23.18-23-0.59-.59Zm500.39,0L1020.4,79l23.18-23-0.59-.59Zm-947.89,0L72.51,79,95.89,55.74l-0.59-.59Zm258.51-.59L331,78.38l23-22.83L353.41,55Zm621.23,0,0.59,0.59,23-22.83L974.64,55Zm138.27-.2,0.59,0.59,23-22.83-0.59-.59Zm-206.81,0L883.72,78l23-22.83-0.59-.59ZM153.34,86.65l0.59,0.59L187.21,54l-0.4-.59ZM363.71,71.88l0.59,0.39,19-18.9-0.59-.59Zm318.34,3.74,0.59,0.59,23-22.83L705,52.79Zm174.13-7.09,0.59,0.59L873,53l-0.59-.59ZM98.26,69.92l0.59,0.59L117.08,52.4,116.49,52Zm706.21,1,0.59,0.59,19.22-18.9L823.69,52ZM293.19,74.84l0.59,0.59,23-23-0.4-.59Zm621.23,0L915,75.43l23-23-0.4-.59ZM31.7,74.25l0.59,0.59L55.47,52l-0.59-.59Zm566,0,0.59,0.59,23-22.83-0.4-.59Zm237.91-3,0.59,0.59,20-19.88-0.59-.59ZM134.52,74l0.59,0.59,23.18-23-0.59-.39Zm70.13,0,0.59,0.59,23.18-23-0.59-.39Zm221.27,0,0.59,0.59,23.18-23-0.59-.39Zm57.45,0L484,74.64l23.18-22.83-0.59-.59ZM643,74l0.59,0.59,23.18-23-0.59-.39Zm71.12,0,0.59,0.59,23.18-23-0.59-.39Zm269.61,0,0.59,0.59,23.18-22.83-0.6-.59Zm69.33,0,0.59,0.59,23.18-23-0.59-.59Zm-532.68-1L521,73.66l23.18-23L543.58,50Zm500.39,0,0.59,0.59,23.18-23L1044,50Zm-689.38-.59L332,73.07l23-22.83-0.59-.59Zm621.23,0,0.59,0.59,23-22.83-0.59-.59Zm138.27-.2,0.59,0.59,23-23-0.59-.59Zm-1017-.2,0.59,0.39L97.67,49.64,97.08,49Zm320.52,0.39L395,73.07l23.57-23.43L418,49Zm490.29-1,0.59,0.59,23.38-23.23-0.59-.59ZM364.11,67l0.59,0.59,19.22-19.09-0.59-.39Zm492.67-3.35,0.59,0.59,16.24-16.14L873,47.48ZM98.66,65.19l0.59,0.39,18-17.91-0.59-.39Zm584.18,5.12,0.59,0.39,23-22.83-0.59-.59Zm122-3.94,0.59,0.39,19.41-19.09-0.59-.59ZM294.18,69.52l0.59,0.59,23.18-23-0.59-.59Zm621.23,0L916,70.11l23.18-23-0.59-.59ZM32.69,68.93l0.59,0.59,23.18-23-0.59-.59Zm566,0,0.59,0.59,23-23-0.4-.59Zm-463.15-.2,0.59,0.59,23.18-23-0.59-.59Zm70.13,0,0.59,0.59,23.18-23-0.59-.59Zm221.27,0,0.59,0.59,23.18-23-0.59-.59Zm57.45,0,0.59,0.59,23.18-23-0.59-.59Zm159.66,0,0.59,0.59,23.18-23-0.59-.59Zm71.12,0,0.59,0.59,23.18-23-0.59-.59Zm269.61,0,0.59,0.59,23.18-23-0.59-.59Zm69.33,0,0.59,0.59,23.18-23-0.59-.59ZM837.36,65.19L838,65.78,857.76,45.9l-0.59-.39ZM157.3,78.38L157.89,79l33.88-33.66-0.59-.59ZM521.4,67.55L522,68.14l23.18-23-0.59-.39Zm500.39,0,0.59,0.59,23.18-23-0.59-.39ZM332.41,67L333,67.55l23-22.83-0.59-.59Zm621.23,0,0.59,0.59,23-22.83-0.59-.59Zm138.27-.2,0.59,0.59,23-22.83-0.59-.59ZM364.3,62.24l0.59,0.59,19.22-19.09-0.59-.59ZM75.68,65.59l0.59,0.59,23-22.83-0.59-.39ZM396.2,66.37L396.79,67l23.77-23.62L420,42.75Zm461-7.68,0.59,0.59,16-15.94-0.59-.59ZM99.06,60.27l0.59,0.59,17.83-17.72-0.59-.59Zm706,1.38,0.59,0.59,19.61-19.49-0.59-.59ZM683.83,64.8l0.59,0.59,23-22.83L706.81,42Zm202.46,0.59L886.89,66l23.77-23.62-0.59-.59ZM295,64l0.59,0.59,23.18-23-0.59-.39ZM916.2,64l0.59,0.59,23.18-23-0.59-.39ZM33.68,63.42L34.28,64l23-22.83-0.4-.59Zm566,0L600.24,64l23-22.83-0.39-.59Zm-463.15-.2,0.59,0.59L160.27,41l-0.59-.59Zm348.84,0,0.59,0.59L509.11,41l-0.59-.59Zm159.66,0,0.59,0.59L668.78,41l-0.59-.59Zm340.73,0,0.59,0.59L1009.51,41l-0.6-.59Zm-779.11,0,0.59,0.59,23.18-23-0.59-.59Zm221.27,0,0.59,0.59,23.18-23-0.59-.59Zm288.23,0,0.59,0.59,23.18-23-0.59-.59Zm338.94,0,0.6,0.59,23.18-23-0.59-.59ZM839.14,58.89l0.59,0.59L859.35,40l-0.59-.59ZM522.39,62.24L523,62.83l23.18-23-0.59-.59Zm500.39,0,0.59,0.59,23.18-23-0.59-.59ZM333.4,61.65L334,62.24,357,39.4l-0.59-.59Zm621.23,0,0.59,0.59,23-22.83-0.59-.59Zm138.27-.2L1093.5,62l23-23-0.59-.39ZM364.7,57.51l0.59,0.59,19.41-19.29-0.59-.59ZM99.45,55.35L100,55.94l17.63-17.52-0.4-.59Zm758.31-1.57,0.59,0.59,16-15.94-0.59-.59Zm-52.5,3.15,0.59,0.59,19.81-19.68-0.59-.59ZM77.66,59.29l0.59,0.59L101,37.24l-0.59-.39Zm320.12,1,0.59,0.39L422.15,37l-0.4-.59Zm287-.79,0.59,0.59,23-23-0.59-.59ZM161.06,70.11l0.59,0.59,34.27-34.06-0.59-.39ZM296,58.7l0.59,0.59,23.18-23-0.59-.59Zm621.23,0,0.59,0.59,23.18-23-0.59-.59Zm-29.12.59,0.59,0.59,24-23.82-0.4-.59ZM34.67,58.11l0.59,0.59,23-23-0.4-.59Zm566,0,0.59,0.59,23-23-0.39-.59Zm-463.15-.2,0.59,0.59,23.18-23-0.59-.59Zm70.13,0,0.59,0.59,23.18-23-0.59-.59Zm221.27,0,0.59,0.59,23.18-23-0.59-.59Zm57.45,0,0.59,0.59,23.18-23-0.59-.59Zm159.66,0,0.59,0.59,23.18-23-0.59-.59Zm71.12,0,0.59,0.59,23.18-23-0.59-.59Zm269.61,0,0.59,0.59,23.18-23-0.59-.59Zm69.33,0,0.59,0.59,23.18-23-0.59-.59ZM523.38,56.73L524,57.32l23-22.83-0.4-.59Zm500.39,0,0.59,0.59,23-22.83-0.4-.59ZM364.9,52.79l0.59,0.59,19.41-19.29-0.59-.59Zm-30.5,3.54L335,56.73l23-22.83-0.59-.59Zm621.23,0,0.59,0.39,23-22.83-0.59-.59ZM99.85,50.62l0.59,0.59L118.07,33.7l-0.59-.59Zm758.31-1.77,0.59,0.59L874.6,33.7,874,33.11Zm235.73,7.09,0.6,0.59,23-22.83-0.59-.59ZM805.47,52.2l0.59,0.59,20-19.88-0.59-.59ZM685.82,54l0.59,0.59,23-22.83-0.59-.59Zm-286.25.2,0.59,0.39,24-23.82-0.59-.59ZM35.66,52.59l0.59,0.59,23-22.83-0.59-.59Zm566,0,0.59,0.59,23-22.83-0.39-.59Zm-463.15,0L139.07,53l23-22.83-0.4-.59Zm348.84,0L487.92,53l23.18-22.83-0.59-.59Zm159.66,0L647.58,53l23-22.83-0.4-.59Zm340.73,0L988.31,53l23.18-22.83-0.59-.59Zm-98.05.79,0.59,0.39,24.37-24.21L914,29ZM365.29,48.07l0.59,0.59L385.5,29.17l-0.59-.59Zm-265-2.36,0.59,0.59L118.27,29l-0.59-.59Zm423.92,5.71L524.76,52l23-23-0.4-.59Zm334.39-7.48,0.59,0.59L875,28.77l-0.59-.39Zm166,7.48,0.59,0.59,23-23-0.4-.59ZM258.33,30l0.59,0.39,1.58-1.57-0.59-.59ZM479.6,30l0.59,0.39,1.58-1.57-0.59-.59Zm288.23,0,0.59,0.39L770,28.77l-0.59-.59ZM335.19,50.82l0.59,0.59,23-22.83L358.17,28Zm621.23,0L957,51.41l23-22.83L979.4,28Zm138.47-.2,0.59,0.59,23-22.83-0.59-.59ZM164.83,62l0.59,0.59,34.67-34.45-0.59-.59ZM805.66,47.67l0.59,0.39L826.46,28l-0.59-.59Zm-118.86,1,0.59,0.59,23-23-0.59-.39ZM525.16,45.9l0.59,0.59L547.35,25l-0.4-.59Zm500.39,0,0.59,0.59L1047.74,25l-0.4-.59Zm-953-16.34L72.91,30l5.35-5.12-0.59-.59ZM336.18,45.51l0.59,0.39,21.39-21.06-0.59-.59Zm302.3-15.94L639.07,30l5.35-5.12-0.59-.59ZM957.41,45.51L958,45.9l21.4-21.06-0.59-.59ZM139.47,47.08l0.59,0.59,23-23-0.4-.59Zm508.51,0,0.59,0.59,23-23-0.4-.59Zm447.7-2,0.59,0.59,21.2-21.06-0.59-.59ZM365.49,43.34l0.59,0.59L385.7,24.25l-0.59-.39Zm35.66,4.53,0.59,0.59,24.17-24-0.59-.59ZM100.64,40.78l0.59,0.59,17.23-17.13-0.59-.59ZM859.15,39l0.59,0.59L875.4,24l-0.59-.59ZM253.77,30l0.59,0.39,7.13-6.89-0.59-.59ZM475,30l0.59,0.39,7.13-6.89-0.59-.59Zm288.23,0,0.59,0.39L771,23.46l-0.59-.59Zm42.59,13,0.59,0.59,20.4-20.47-0.59-.39Zm85.38,4.33,0.59,0.59L916.6,23.26,916,22.67ZM301.71,26.22l0.59,0.59,4-3.94-0.59-.59Zm621.23,0,0.59,0.59,4-3.94-0.59-.59ZM526.15,40.59l0.59,0.59,18.62-18.7-0.4-.59Zm500.39,0,0.6,0.59,18.62-18.7-0.4-.59ZM337.17,40l0.59,0.59,18.42-18.31-0.59-.59ZM958.4,40L959,40.59l18.42-18.31-0.59-.59Zm138.27-.2,0.59,0.59,18.22-18.11-0.59-.59ZM687.6,43.14l0.59,0.59,23-22.83-0.59-.59ZM527.14,35.07l0.59,0.59,15.65-15.55-0.4-.59Zm500.39,0,0.59,0.59,15.65-15.55-0.4-.59Zm-689.37-.39,0.59,0.39L354.2,19.92l-0.59-.59Zm621.23,0L960,35.07l15.45-15.16-0.59-.59Zm138.27-.39,0.59,0.59,15.25-15.16-0.59-.59ZM101,36.06l0.59,0.59,17.23-17.13-0.59-.59Zm67.55,17.72,0.59,0.59,35.06-34.84-0.59-.59Zm197.3-15.16,0.59,0.59,19.81-19.68-0.59-.59ZM68,29.56L68.55,30l10.7-10.63-0.59-.59Zm72.51,12.2,0.59,0.39,23-22.83-0.4-.59Zm493.45-12.2,0.6,0.39,10.7-10.63-0.6-.59ZM649,41.77l0.59,0.39,23-22.83-0.4-.59Zm191.76,11,0.59,0.59,34.27-34.06L875,18.73ZM806.26,38.22l0.59,0.59,20.6-20.47-0.59-.59ZM249.22,30l0.59,0.39,12.48-12.4-0.59-.39ZM402.93,41.77l0.59,0.59L427.9,18.14l-0.59-.59ZM470.48,30l0.59,0.39,12.48-12.4L483,17.55Zm288.23,0,0.59,0.39,12.48-12.4-0.59-.39ZM526.15,31.73l0.59,0.59L541.4,17.55,541,17Zm500.39,0,0.6,0.59,14.66-14.76-0.4-.59Zm-690,0,0.59,0.59,14.86-15-0.59-.59Zm621.23,0,0.59,0.59,14.86-15-0.59-.59Zm138.27-.2,0.59,0.59,14.86-14.76-0.59-.59ZM892.83,41.18l0.59,0.59,25.16-25L918,16.18ZM688.59,37.83l0.59,0.59,23-23L711.57,15ZM524,29.56L524.57,30l14.86-14.76L539,14.6Zm500.39,0L1025,30l14.86-14.76-0.4-.59ZM334,30l0.59,0.39L350,15l-0.4-.59Zm621.23,0,0.59,0.39L971.27,15l-0.4-.59ZM79.64,53l0.59,0.59,39-38.78-0.59-.59ZM1093.3,30l0.59,0.39,15.65-15.55-0.59-.59ZM366.09,33.89l0.59,0.39L386.49,14.6,385.9,14ZM25.56,13.81L24.17,15l0.59,0.59,1.39-1.38Zm4.36,0-6.54,6.5L24,20.9l6.54-6.69Zm4.56,0-12.08,12L23,26.41l12.08-12.2Zm4.56,0L23.18,29.56,23.58,30,39.43,14.21Zm4.36,0L27.54,29.56,28.14,30,44,14.21Zm4.56,0L32.1,29.56,32.69,30,48.54,14.21Zm4.56,0L36.66,29.56,37.05,30,52.9,14.21Zm4.36,0L39.43,31.14,40,31.53,57.46,14.21Zm4.56,0-23,22.64L39,37,62,14.21Zm4.36,0L37.45,42,38,42.36,66.37,14.21Zm4.56,0L36.66,47.28l0.4,0.59L70.93,14.21Zm4.56,0L59,29.56,59.44,30,75.28,14.21Zm4.36,0L63.4,29.56,64,30,79.84,14.21Zm13.07,0L90.93,15l0.59,0.59,1.19-1.38Zm4.36,0L89,21.29l0.59,0.59,7.73-7.68Zm4.56,0-14.07,14,0.59,0.39,14.07-14Zm4.36,0L85.19,34.09l0.59,0.59,20.4-20.47Zm4.56,0L83.41,40.39,84,41l26.74-26.77Zm4.36,0L81.43,46.69,82,47.28,115.1,14.21Zm31.7,0-1,.79,0.59,0.59,0.79-1Zm4.36,0-6.34,6.3,0.59,0.59,6.34-6.5Zm4.56,0L143.23,25.43,143.83,26l11.69-11.81Zm4.36,0L142.24,30.94l0.59,0.39,17.23-17.13Zm4.56,0L141.25,36.25l0.59,0.59,22.58-22.64Zm26.94,0-7.33,7.28,0.59,0.39,7.33-7.28Zm4.56,0L179.88,29.17l0.59,0.59,15.45-15.55Zm4.36,0L176.12,37.44,176.71,38l23.77-23.82Zm4.56,0L172.35,45.7l0.59,0.39L205,14.21Zm11.88,0-1,.79,0.59,0.59,0.79-1Zm4.36,0-6.34,6.3,0.59,0.59,6.34-6.5Zm4.56,0L213.36,25.43,214,26l11.69-11.81Zm4.36,0L212.37,30.94,213,31.33,230.2,14.21Zm4.56,0L211.38,36.25,212,36.85l22.58-22.64Zm4.56,0-28.13,28,0.59,0.39,28.13-28Zm4.36,0L209.6,47.08l0.59,0.59,33.48-33.46Zm4.56,0-39,38.78L209.2,53l39-38.78Zm4.36,0L235.74,30l0.59,0.39,16.24-16.14Zm4.56,0L240.3,30l0.59,0.39,16.24-16.14Zm4.56,0L244.86,30l0.59,0.39L261.7,14.21Zm57.64,0-18,17.91,0.59,0.59,18-18.11Zm4.56,0L299.73,37l0.59,0.59L323.7,14.21Zm4.56,0L298.93,42.55l0.59,0.39,28.92-28.74Zm4.36,0L297.94,47.87l0.59,0.59,34.27-34.25Zm4.56,0L297,53.18l0.59,0.59,39.82-39.57Zm4.36,0L324.88,30l0.59,0.39,16.24-16.14Zm4.56,0L329.44,30,330,30.35l16.24-16.14Zm22.78,0-1.19,1,0.59,0.59,1-1.18Zm4.56,0-5.94,5.71,0.59,0.59,5.75-5.91Zm4.36,0-10.7,10.43,0.59,0.59L378,14.21Zm4.56,0L366.48,29l0.59,0.59,15.45-15.35Zm31.3,0-3.57,3.54,0.59,0.59,3.57-3.74Zm4.56,0-9.91,9.65L408.48,24l9.71-9.84Zm4.56,0-16,15.75,0.59,0.59,15.85-15.94Zm4.36,0L404.52,35.66l0.59,0.59,22.19-22Zm10.89,0-1,.79,0.59,0.59,0.79-1Zm4.36,0-6.34,6.3,0.59,0.59,6.34-6.5Zm4.56,0L434.63,25.43,435.22,26l11.69-11.81Zm4.36,0L433.64,30.94l0.59,0.39,17.23-17.13Zm4.56,0L432.65,36.25l0.59,0.59,22.58-22.64Zm4.56,0-28.13,28,0.59,0.39,28.13-28Zm4.36,0L430.86,47.08l0.59,0.59,33.48-33.46Zm4.56,0-39,38.78L430.47,53l39-38.78Zm4.36,0L457,30l0.59,0.39,16.24-16.14Zm4.56,0L461.57,30l0.59,0.39,16.24-16.14Zm4.56,0L466.13,30l0.59,0.39L483,14.21Zm12.68,0-1,.79,0.59,0.59,0.79-1Zm4.36,0-6.34,6.3,0.59,0.59,6.34-6.5Zm4.56,0L492.08,25.43,492.67,26l11.69-11.81Zm4.36,0L491.09,30.94l0.59,0.39,17.23-17.13Zm4.56,0L490.1,36.25l0.59,0.59,22.58-22.64Zm4.56,0-28.13,28,0.59,0.39,28.13-28Zm4.36,0L488.31,47.08l0.59,0.59,33.48-33.46Zm4.56,0L510.5,29.56,511.09,30l15.85-15.75Zm4.36,0L514.86,29.56,515.45,30,531.3,14.21Zm4.56,0L519.42,29.56,520,30l15.85-15.75Zm56.06,0L590.13,15l0.59,0.59,1.19-1.38Zm4.75,0-6.73,6.5,0.59,0.59,6.74-6.69Zm4.36,0-12.08,12,0.59,0.59L601,14.21Zm4.56,0L589.14,29.56,589.74,30l15.85-15.75Zm4.36,0L593.5,29.56,594.09,30l15.85-15.75Zm4.55,0L598.06,29.56,598.65,30,614.5,14.21Zm4.56,0L602.62,29.56,603.21,30l15.85-15.75Zm4.36,0L605.39,31.14,606,31.53l17.43-17.32Zm4.36,0L604.4,36.45,605,37l22.78-22.83Zm4.56,0L603.41,42,604,42.36l28.33-28.15Zm4.55,0L602.62,47.28l0.59,0.59,33.68-33.66Zm4.56,0L625,29.56,625.59,30l15.85-15.75Zm4.36,0L629.36,29.56,630,30,645.8,14.21Zm9.51,0-1,.79,0.59,0.59,0.79-1Zm4.36,0-6.34,6.3,0.59,0.59,6.34-6.5Zm4.56,0L651.74,25.43,652.34,26,664,14.21Zm4.36,0L650.75,30.94l0.59,0.39,17.23-17.13Zm4.56,0L649.76,36.25l0.59,0.59,22.58-22.64Zm22.39,0-2.58,2.36,0.59,0.59,2.38-2.56Zm4.56,0-7.92,7.87,0.59,0.59,7.92-8.07Zm4.56,0L690.57,27l0.59,0.59,13.27-13.39Zm4.36,0-18.82,18.7,0.59,0.39L709,14.21Zm17.43,0-1,.79,0.59,0.59,0.79-1Zm4.36,0-6.34,6.3,0.59,0.59,6.34-6.5Zm4.56,0L722.86,25.43,723.45,26l11.69-11.81Zm4.36,0L721.87,30.94l0.59,0.39L739.7,14.21Zm4.56,0L720.88,36.25l0.59,0.59,22.58-22.64Zm4.56,0-28.13,28,0.59,0.39,28.13-28Zm4.36,0L719.1,47.08l0.59,0.59,33.48-33.46Zm4.56,0-39,38.78L718.7,53l39-38.78Zm4.36,0L745.25,30l0.59,0.39,16.24-16.14Zm4.56,0L749.8,30l0.59,0.39,16.24-16.14Zm4.56,0L754.36,30,755,30.35,771.2,14.21Zm37.64,0-1,1,0.59,0.59,1-1.18Zm4.56,0-5.74,5.71,0.59,0.59,5.74-5.91Zm4.56,0-10.5,10.43,0.59,0.39,10.5-10.43Zm4.56,0-15.25,15,0.59,0.59L822.5,14.21Zm4.56,0-20,19.69,0.59,0.59,19.81-19.88Zm26.74,0-2,2,0.59,0.59,2-2.17Zm4.56,0-8.32,8.07L850,22.48l8.32-8.27Zm4.36,0L847.66,28.18l0.59,0.39,14.46-14.37Zm4.56,0-20.6,20.47,0.59,0.59,20.6-20.67Zm4.56,0L844.29,40.39,844.89,41l26.94-26.77Zm4.36,0L842.51,46.69l0.59,0.59L876,14.4Zm26.94,0L899.17,17l0.59,0.59,3.37-3.35Zm4.36,0-9.31,9.25,0.59,0.59,9.31-9.45Zm4.56,0L896,29.17l0.59,0.59L912,14.21Zm4.56,0L894.41,35.27,895,35.66,916.6,14.21Zm24,0-18,17.91,0.59,0.59,18-18.11Zm4.56,0L921,37l0.59,0.59,23.38-23.43Zm4.56,0L920.16,42.55l0.59,0.39,28.92-28.74Zm4.36,0L919.17,47.87l0.59,0.59L954,14.21Zm4.56,0L918.18,53.18l0.59,0.59L958.6,14.21Zm4.36,0L946.12,30l0.59,0.39L963,14.21Zm4.56,0L950.67,30l0.59,0.39,16.24-16.14Zm28.52,0-1,.79L995,15.19l0.79-1Zm4.36,0-6.34,6.3,0.59,0.59,6.34-6.5Zm4.56,0L992.47,25.43,993.06,26l11.69-11.81Zm4.36,0L991.48,30.94l0.59,0.39,17.24-17.13Zm4.56,0L990.49,36.25l0.59,0.59,22.58-22.64Zm4.56,0-28.13,28,0.59,0.39,28.13-28Zm4.36,0L988.7,47.08l0.59,0.59,33.48-33.46Zm4.56,0-15.85,15.75,0.59,0.39,15.85-15.75Zm4.36,0-15.85,15.75,0.59,0.39,15.85-15.75Zm4.56,0-15.85,15.75L1020.4,30l15.85-15.75Zm29.12,0-1,.79,0.59,0.59,0.79-1Zm4.36,0-6.34,6.3,0.59,0.59,6.34-6.5Zm4.56,0L1061.8,25.43,1062.4,26l11.69-11.81Zm4.36,0-17.23,17.13,0.6,0.39,17.23-17.13Zm4.56,0-22.78,22.44,0.59,0.59L1083,14.21Zm4.56,0-28.13,28,0.59,0.39,28.13-28Zm4.36,0L1058,47.08l0.59,0.59,33.48-33.46Zm4.56,0-39,38.78,0.59,0.39,39-38.78Zm4.36,0L1084.19,30l0.59,0.39L1101,14.21Zm4.56,0L1088.74,30l0.59,0.39,16.24-16.14Z"/><path class="cls-4" d="M15,14L12.2,29.76h18L6.46,163.62h19L49.25,29.76h18L70.05,14H15ZM91.84,33.5L85.7,108.89H71.24ZM81.74,14L37.17,163.62h19L66.68,125H84.31l-3.17,38.58H101L109.08,14H81.74Zm95.68,0L140.77,93.73,154.84,14h-19L109.27,163.62h19L134.63,128,148.5,102.4l3,61.22h19.81l-6.93-83.27L196.64,14H177.42Zm28.52,0L179.4,163.62h47.35l2.77-16.14H201.19L210.5,95.9h24.37l2.77-16.14H213.27l8.91-49.61h27.93L252.9,14h-47Zm84.58,129.53L309.94,34.09l4.76-3.94h10.9l3.17,3.94L309.35,143.54l-4.76,3.94H293.7ZM306.38,14L292.31,25.82l-22.19,126,9.71,11.81h33.08L327,151.81l22.19-126L339.46,14H306.38Zm94.69,0L366.2,141.37,376.51,14H357.88l-9.31,149.61h26.55L418.9,14H401.07Zm26.15,0L400.67,163.62H448l2.77-16.14H422.46l9.31-51.57h24.37l2.77-16.14H434.55l8.91-49.61h27.93L474.17,14h-47Zm73.69,15.75h13.87l3.17,3.94-8.32,46.85-4.56,3.94H491.2ZM484.66,14L458.12,163.62h19l11.29-63.78h8.12l0.4,63.78h18.42L515,98.46,527.45,88l10.9-62.2L528.64,14h-44Zm96.27,0-2.77,15.75h18L572.42,163.62h19L615.21,29.76h18L636,14H580.94Zm102.42,0L671.67,80.35h-20L663.35,14h-19L617.78,163.62h19l11.88-66.73h20l-11.88,66.73h19L702.37,14h-19Zm32.09,0L688.9,163.62h47.35L739,147.48H710.69L720,95.9h24.37l2.77-16.14H722.78l8.91-49.61h27.93L762.4,14h-47Zm175.12,0L856.29,143.34,866,14H842.23L806,143.34,817.66,14H797.85l-7.33,149.61h26.55l32.69-126-12.08,126h25.75L909.19,14H890.57Zm21.19,129.53L931.17,34.09l4.75-3.94h10.9L950,34.09,930.58,143.54l-4.75,3.94h-10.9ZM927.61,14L913.54,25.82l-22.19,126,9.71,11.81h33.08l14.07-11.81,22.19-126L960.69,14H927.61Zm73.69,15.75h13.87l3.17,3.94L1010,80.55l-4.56,3.94H991.59ZM985.05,14L958.51,163.62h19l11.29-63.78h8.12l0.4,63.78h18.42l-0.4-65.16L1027.84,88l10.9-62.2L1029,14h-44Zm85.58,16.14h14.46l3.17,3.94-19.41,109.45-4.75,3.94h-14.46ZM1054.39,14l-26.55,149.61h44.57l14.07-11.81,22.19-126L1099,14h-44.57Z"/></g></svg>