<?xml version="1.0" encoding="utf-8"?>
<!-- Generator: Adobe Illustrator 19.2.1, SVG Export Plug-In . SVG Version: 6.00 Build 0)  -->
<svg version="1.1" id="Layer_1" xmlns="http://www.w3.org/2000/svg" xmlns:xlink="http://www.w3.org/1999/xlink" x="0px" y="0px"
	 viewBox="0 0 1111.9 149.9" style="enable-background:new 0 0 1111.9 149.9;" xml:space="preserve">
<style type="text/css">
	.st0{clip-path:url(#SVGID_2_);}
	.st1{clip-path:url(#SVGID_4_);fill:#FFFFFF;}
	.st2{clip-path:url(#SVGID_4_);fill:#FFCD09;}
</style>
<g>
	<defs>
		<polyline id="SVGID_1_" points="1111.9,0 1111.9,149.9 0,149.9 0,0 		"/>
	</defs>
	<clipPath id="SVGID_2_">
		<use xlink:href="#SVGID_1_"  style="overflow:visible;"/>
	</clipPath>
	<g class="st0">
		<defs>
			<rect id="SVGID_3_" x="-0.1" width="1112" height="150"/>
		</defs>
		<clipPath id="SVGID_4_">
			<use xlink:href="#SVGID_3_"  style="overflow:visible;"/>
		</clipPath>
		<path class="st1" d="M229.4,149.6l0.6,0.4l0.2-0.2l-0.4-0.6L229.4,149.6 M450.7,149.6l0.6,0.4l0.2-0.2l-0.4-0.6L450.7,149.6z
			 M738.9,149.6l0.6,0.4l0.2-0.2l-0.4-0.6L738.9,149.6z M517.1,149.6l0.6,0.4l1.2-1.2l-0.6-0.4L517.1,149.6z M1017.5,149.6l0.6,0.4
			l1.2-1.2l-0.6-0.4L1017.5,149.6z M172.8,149.6l0.6,0.4l1.4-1.2l-0.6-0.6L172.8,149.6z M377.2,149.6l0.6,0.4l1.2-1.2l-0.6-0.6
			L377.2,149.6z M676.7,149.6l0.6,0.4l2.4-2.4l-0.6-0.6L676.7,149.6z M100.9,149.6l0.6,0.4l3.2-3.1l-0.6-0.4L100.9,149.6z
			 M25.4,149.6L26,150l3.8-3.7l-0.6-0.6L25.4,149.6z M591.3,149.6l0.6,0.4l3.8-3.7l-0.6-0.6L591.3,149.6z M817.2,149.6l0.6,0.4
			l4-3.7l-0.6-0.6L817.2,149.6z M128,149.6l0.6,0.4l4-3.9l-0.6-0.6L128,149.6z M476.8,149.6l0.6,0.4l4-3.9l-0.6-0.6L476.8,149.6z
			 M636.5,149.6l0.6,0.4l4-3.9l-0.6-0.6L636.5,149.6z M977.2,149.6l0.6,0.4l4-3.9l-0.6-0.6L977.2,149.6z M56.1,149.6l0.6,0.4
			l4.2-4.1l-0.6-0.6L56.1,149.6z M168.2,149.6l0.6,0.4l5.5-5.3l-0.6-0.6L168.2,149.6z M225.1,149.6l0.6,0.4l5.7-5.7l-0.6-0.4
			L225.1,149.6z M446.3,149.6l0.6,0.4l5.7-5.7l-0.6-0.4L446.3,149.6z M512.7,149.6l0.6,0.4l5.5-5.5l-0.4-0.6L512.7,149.6z
			 M734.6,149.6l0.6,0.4l5.7-5.7l-0.6-0.4L734.6,149.6z M1013.1,149.6l0.6,0.4l5.5-5.5l-0.4-0.6L1013.1,149.6z M861.9,149.6l0.6,0.4
			l6.3-6.3l-0.6-0.6L861.9,149.6z M372.6,149.6l0.6,0.4l7.5-7.5l-0.6-0.6L372.6,149.6z M96.5,149.6l0.6,0.4l7.9-7.7l-0.6-0.6
			L96.5,149.6z M672.4,149.6l0.6,0.4l7.9-7.7l-0.6-0.6L672.4,149.6z M20.8,149.6l0.6,0.4l9.3-9.1l-0.6-0.6L20.8,149.6z M586.8,149.6
			l0.6,0.4l9.3-9.1l-0.6-0.6L586.8,149.6z M123.4,149.6l0.6,0.4l9.5-9.3l-0.6-0.6L123.4,149.6z M472.3,149.6l0.6,0.4l9.5-9.3
			l-0.6-0.6L472.3,149.6z M632,149.6l0.6,0.4l9.5-9.3l-0.6-0.6L632,149.6z M972.7,149.6l0.6,0.4l9.5-9.3l-0.6-0.6L972.7,149.6z
			 M163.9,149.6l0.6,0.4l9.7-9.4l-0.6-0.6L163.9,149.6z M508.1,149.6l0.6,0.4l10.1-10l-0.6-0.4L508.1,149.6z M812.6,149.6l0.6,0.4
			l9.9-9.8l-0.6-0.6L812.6,149.6z M1008.5,149.6l0.6,0.4l10.1-10l-0.6-0.4L1008.5,149.6z M51.7,149.6l0.4,0.4l10.5-10.2l-0.6-0.6
			L51.7,149.6z M220.5,149.6l0.6,0.4l11.1-11l-0.6-0.6L220.5,149.6z M441.8,149.6l0.6,0.4l11.1-11l-0.6-0.6L441.8,149.6z M730,149.6
			l0.6,0.4l11.1-11l-0.6-0.6L730,149.6z M91.9,149.6l0.6,0.4l12.7-12.4l-0.6-0.6L91.9,149.6z M857.6,149.6l0.6,0.4l12.7-12.6
			l-0.4-0.6L857.6,149.6z M667.8,149.6l0.6,0.4l13.3-13.2l-0.6-0.6L667.8,149.6z M159.3,149.6l0.6,0.4l13.7-13.6l-0.4-0.6
			L159.3,149.6z M368.3,149.6l0.6,0.4l13.9-13.8l-0.6-0.6L368.3,149.6z M503.8,149.6l0.6,0.4l14.5-14.4l-0.4-0.6L503.8,149.6z
			 M1004.2,149.6l0.6,0.4l14.5-14.4l-0.4-0.6L1004.2,149.6z M16.3,149.6l0.6,0.4l14.9-14.6l-0.6-0.6L16.3,149.6z M582.2,149.6
			l0.6,0.4l14.7-14.6l-0.6-0.6L582.2,149.6z M119.1,149.6l0.4,0.4l15.1-14.8l-0.6-0.6L119.1,149.6z M467.9,149.6l0.4,0.4l15.1-14.8
			l-0.6-0.6L467.9,149.6z M627.6,149.6l0.4,0.4l15.1-14.8l-0.6-0.6L627.6,149.6z M968.3,149.6l0.4,0.4l15.1-14.8l-0.6-0.6
			L968.3,149.6z M808.3,149.6l0.6,0.4l15.8-15.7l-0.4-0.6L808.3,149.6z M189.2,149.6l0.4,0.4l16.2-16.1l-0.4-0.4L189.2,149.6z
			 M193.6,149.6l0.6,0.4l16.2-16.1l-0.6-0.4L193.6,149.6z M198.1,149.6l0.6,0.4l16.2-16.1l-0.6-0.4L198.1,149.6z M202.5,149.6
			l0.6,0.4l16.2-16.1l-0.6-0.4L202.5,149.6z M207,149.6l0.6,0.4l16.2-16.1l-0.6-0.4L207,149.6z M211.6,149.6l0.6,0.4l16.2-16.1
			l-0.6-0.4L211.6,149.6z M216,149.6l0.6,0.4l16.2-16.1l-0.6-0.4L216,149.6z M282.7,149.4l0.6,0.6l16.2-16.1l-0.6-0.4L282.7,149.4z
			 M287.3,149.6l0.6,0.4l16.2-16.1l-0.6-0.4L287.3,149.6z M410.5,149.6l0.4,0.4l16.2-16.1l-0.4-0.4L410.5,149.6z M414.8,149.6
			l0.6,0.4l16.2-16.1l-0.6-0.4L414.8,149.6z M419.4,149.6l0.6,0.4l16.2-16.1l-0.6-0.4L419.4,149.6z M423.8,149.6l0.6,0.4l16.2-16.1
			l-0.6-0.4L423.8,149.6z M428.3,149.6l0.6,0.4l16.2-16.1l-0.6-0.4L428.3,149.6z M432.9,149.6l0.6,0.4l16.2-16.1l-0.6-0.4
			L432.9,149.6z M437.2,149.6l0.6,0.4l16.2-16.1l-0.6-0.4L437.2,149.6z M698.7,149.6l0.4,0.4l16.2-16.1l-0.4-0.4L698.7,149.6z
			 M703.1,149.6l0.6,0.4l16.2-16.1l-0.6-0.4L703.1,149.6z M707.6,149.6l0.6,0.4l16.2-16.1l-0.6-0.4L707.6,149.6z M712,149.6l0.6,0.4
			l16.2-16.1l-0.6-0.4L712,149.6z M716.5,149.6l0.6,0.4l16.2-16.1l-0.6-0.4L716.5,149.6z M721.1,149.6l0.6,0.4l16.2-16.1l-0.6-0.4
			L721.1,149.6z M725.5,149.6l0.6,0.4l16.2-16.1l-0.6-0.4L725.5,149.6z M903.9,149.4l0.6,0.6l16.2-16.1l-0.6-0.4L903.9,149.4z
			 M908.5,149.6l0.6,0.4l16.2-16.1l-0.6-0.4L908.5,149.6z M1037.6,149.6l0.4,0.4l16.2-16.1l-0.4-0.4L1037.6,149.6z M1042,149.6
			l0.6,0.4l16.2-16.1l-0.6-0.4L1042,149.6z M1046.6,149.6l0.6,0.4l16.2-16.1l-0.6-0.4L1046.6,149.6z M47.2,149.6l0.6,0.4l16.4-16.3
			l-0.6-0.6L47.2,149.6z M314.2,149.6l0.6,0.4l16.6-16.5l-0.6-0.6L314.2,149.6z M935.4,149.6l0.6,0.4l16.6-16.5l-0.6-0.6
			L935.4,149.6z M1073.5,149.6l0.6,0.4l16.8-16.7l-0.6-0.6L1073.5,149.6z M1050.9,149.6l0.6,0.4l17-16.9l-0.6-0.6L1050.9,149.6z
			 M87.6,149.6l0.6,0.4l17.4-17.1l-0.6-0.6L87.6,149.6z M280.7,147l0.6,0.6l14.9-15l-0.6-0.6L280.7,147z M902,147l0.6,0.6l14.9-15
			l-0.6-0.6L902,147z M154.9,149.6l0.6,0.4l17.8-17.7l-0.6-0.6L154.9,149.6z M291.6,149.6l0.6,0.4l18-17.9l-0.6-0.6L291.6,149.6z
			 M912.9,149.6l0.6,0.4l18-17.9l-0.6-0.6L912.9,149.6z M663.4,149.6l0.6,0.4l18.8-18.5l-0.6-0.6L663.4,149.6z M500,148.8l0.6,0.6
			l18.2-18.3l-0.6-0.4L500,148.8z M1000.4,148.8l0.6,0.6l18.2-18.3l-0.6-0.4L1000.4,148.8z M853,149.6l0.6,0.4l19.2-19.1l-0.6-0.6
			L853,149.6z M278.7,144.5l0.6,0.6l14.9-14.8l-0.4-0.6L278.7,144.5z M900,144.5l0.6,0.6l14.9-14.8l-0.4-0.6L900,144.5z M11.9,149.6
			l0.6,0.4l20-19.9l-0.4-0.6L11.9,149.6z M577.9,149.6l0.6,0.4l20.2-19.9l-0.6-0.6L577.9,149.6z M114.5,149.6l0.6,0.4l20.4-20.1
			l-0.6-0.6L114.5,149.6z M184.7,149.6l0.6,0.4l20.2-20.1l-0.6-0.6L184.7,149.6z M363.7,149.6l0.6,0.4l20.2-20.1l-0.6-0.6
			L363.7,149.6z M405.9,149.6l0.6,0.4l20.2-20.1l-0.6-0.6L405.9,149.6z M463.4,149.6l0.6,0.4l20.2-20.1l-0.4-0.6L463.4,149.6z
			 M623,149.6l0.6,0.4l20.4-20.1l-0.6-0.6L623,149.6z M694.2,149.6l0.6,0.4l20.2-20.1l-0.6-0.6L694.2,149.6z M963.8,149.6l0.6,0.4
			l20.2-20.1l-0.4-0.6L963.8,149.6z M1033.1,149.6l0.6,0.4l20.2-20.1l-0.6-0.6L1033.1,149.6z M84.2,148.2l0.6,0.6l20.8-20.7
			l-0.4-0.6L84.2,148.2z M154.3,145.7l0.6,0.6l18.2-18.1l-0.6-0.6L154.3,145.7z M309.6,149.6l0.6,0.4l22-21.9l-0.4-0.6L309.6,149.6z
			 M803.7,149.6l0.6,0.4l22-21.9l-0.6-0.6L803.7,149.6z M930.9,149.6l0.6,0.4l22-21.9l-0.4-0.6L930.9,149.6z M1068.9,149.6l0.6,0.4
			l22.4-22l-0.6-0.6L1068.9,149.6z M42.6,149.6l0.6,0.4L66,127.6l-0.6-0.6L42.6,149.6z M351.8,143.5l0.6,0.6l17.2-17.3l-0.4-0.6
			L351.8,143.5z M499.8,144.5l0.6,0.4l18.2-18.1l-0.6-0.6L499.8,144.5z M794,141.5l0.6,0.4l15.3-15.2l-0.6-0.6L794,141.5z
			 M1000.2,144.5l0.6,0.4l18.2-18.1l-0.6-0.6L1000.2,144.5z M660.1,148.4l0.6,0.6l23-23l-0.4-0.6L660.1,148.4z M841.3,143.5l0.6,0.4
			l18.2-18.1l-0.4-0.6L841.3,143.5z M276.8,142.1l0.6,0.6l17.6-17.5l-0.6-0.6L276.8,142.1z M898,142.1l0.6,0.6l17.6-17.5l-0.6-0.6
			L898,142.1z M9.9,147l0.6,0.6l23-23l-0.6-0.6L9.9,147z M182.9,146.9l0.6,0.6l23-22.8l-0.6-0.6L182.9,146.9z M404.1,146.9l0.6,0.6
			l23-22.8l-0.6-0.6L404.1,146.9z M575.9,147l0.6,0.6l23-23l-0.4-0.6L575.9,147z M692.4,146.9l0.6,0.6l23-22.8l-0.6-0.6L692.4,146.9
			z M848.5,149.6l0.6,0.4l25.6-25.4l-0.4-0.6L848.5,149.6z M1031.3,146.9l0.6,0.6l23-22.8l-0.6-0.6L1031.3,146.9z M112.7,146.9
			l0.6,0.6l23-23l-0.4-0.6L112.7,146.9z M461.6,146.9l0.6,0.6l23-23l-0.6-0.6L461.6,146.9z M621.3,146.9l0.6,0.6l23-23l-0.4-0.6
			L621.3,146.9z M962,146.9l0.6,0.6l23-23l-0.6-0.6L962,146.9z M154.1,141.3l0.6,0.6l18-17.9l-0.6-0.6L154.1,141.3z M359.2,149.6
			l0.6,0.4l26.5-26.4l-0.6-0.6L359.2,149.6z M84.6,143.5l0.6,0.6l20.8-20.7l-0.6-0.6L84.6,143.5z M305.1,149.6l0.6,0.4l27.5-27.4
			l-0.6-0.4L305.1,149.6z M926.3,149.6l0.6,0.4l27.5-27.4l-0.6-0.4L926.3,149.6z M499.8,140l0.6,0.6l18.2-18.3l-0.6-0.4L499.8,140z
			 M1000.2,140l0.6,0.6l18.2-18.3l-0.6-0.4L1000.2,140z M1064.4,149.6l0.6,0.4l27.7-27.6l-0.6-0.6L1064.4,149.6z M799.1,149.6
			l0.6,0.4l27.9-27.8l-0.4-0.6L799.1,149.6z M352.2,138.8l0.6,0.4l17.4-17.3l-0.6-0.4L352.2,138.8z M794.2,136.8l0.6,0.6l15.5-15.6
			l-0.6-0.6L794.2,136.8z M41,146.9l0.6,0.4l26-25.8l-0.6-0.6L41,146.9z M841.7,138.6l0.6,0.4l18.2-18.1l-0.6-0.6L841.7,138.6z
			 M660.9,142.9l0.6,0.6l23-22.8l-0.4-0.6L660.9,142.9z M153.9,137.2l0.6,0.6l17.8-17.9l-0.6-0.6L153.9,137.2z M274.8,139.8l0.6,0.4
			l20.6-20.5l-0.6-0.4L274.8,139.8z M896,139.8l0.6,0.4l20.6-20.5l-0.6-0.4L896,139.8z M10.9,141.7l0.4,0.4l23.2-22.8l-0.6-0.6
			L10.9,141.7z M576.9,141.7l0.6,0.4l23-22.8l-0.4-0.6L576.9,141.7z M113.7,141.3l0.6,0.6l23-22.8l-0.6-0.6L113.7,141.3z
			 M183.9,141.3l0.6,0.6l23-22.8l-0.6-0.6L183.9,141.3z M405.1,141.3l0.6,0.6l23-22.8l-0.6-0.6L405.1,141.3z M462.6,141.3l0.6,0.6
			l23-22.8l-0.6-0.6L462.6,141.3z M622.2,141.3l0.6,0.6l23-22.8l-0.4-0.6L622.2,141.3z M693.4,141.3l0.6,0.6l23-22.8l-0.6-0.6
			L693.4,141.3z M963,141.3l0.6,0.6l23-22.8l-0.6-0.6L963,141.3z M1032.3,141.3l0.6,0.6l23-22.8l-0.6-0.6L1032.3,141.3z M85,138.6
			l0.6,0.6l20.6-20.5l-0.6-0.6L85,138.6z M844.1,149.6l0.6,0.4l32.1-31.9l-0.6-0.6L844.1,149.6z M499.8,135.6l0.6,0.4l18.2-18.1
			l-0.6-0.6L499.8,135.6z M1000.2,135.6l0.6,0.4l18.2-18.1l-0.6-0.6L1000.2,135.6z M354.8,149.6l0.6,0.4l32.9-32.7l-0.6-0.4
			L354.8,149.6z M300.7,149.6l0.6,0.4l32.9-32.7l-0.4-0.6L300.7,149.6z M922,149.6l0.6,0.4l32.9-32.7l-0.4-0.6L922,149.6z
			 M352.4,133.9l0.6,0.6l17.4-17.3l-0.6-0.6L352.4,133.9z M1060,149.6l0.6,0.4l33.3-32.9l-0.6-0.6L1060,149.6z M794.4,132.1l0.6,0.6
			l15.7-15.7l-0.4-0.6L794.4,132.1z M794.8,149.6l0.6,0.4l34.1-33.9l-0.6-0.6L794.8,149.6z M842.1,133.7l0.6,0.4l18-17.9l-0.6-0.6
			L842.1,133.7z M153.8,132.9l0.6,0.6l17.6-17.7l-0.4-0.6L153.8,132.9z M42.8,140.4l0.6,0.6l26-25.6l-0.6-0.6L42.8,140.4z
			 M661.9,137.6l0.6,0.6l23-23l-0.4-0.6L661.9,137.6z M273.4,136.6l0.4,0.6l23-22.8l-0.4-0.6L273.4,136.6z M894.6,136.6l0.4,0.6
			l23-22.8l-0.4-0.6L894.6,136.6z M85.4,133.9l0.6,0.4l20.4-20.3l-0.6-0.6L85.4,133.9z M11.9,136.2l0.4,0.6l23.2-23l-0.6-0.6
			L11.9,136.2z M184.9,136l0.6,0.6l23-23l-0.6-0.4L184.9,136z M406.1,136l0.6,0.6l23-23l-0.6-0.4L406.1,136z M463.6,136l0.6,0.6
			l23-23l-0.6-0.4L463.6,136z M577.9,136.2l0.6,0.6l23-23l-0.4-0.6L577.9,136.2z M694.4,136l0.6,0.6l23-23l-0.6-0.4L694.4,136z
			 M964,136l0.6,0.6l23-23l-0.6-0.4L964,136z M1033.3,136l0.6,0.6l23-22.8l-0.6-0.6L1033.3,136z M499.8,131.1l0.6,0.6l18.2-18.3
			L518,113L499.8,131.1z M623.2,136l0.6,0.6l23-23l-0.6-0.6L623.2,136z M1000.2,131.1l0.6,0.6l18.2-18.3l-0.6-0.4L1000.2,131.1z
			 M114.7,136l0.6,0.6l23.8-23.6l-0.6-0.6L114.7,136z M352.8,129.1l0.6,0.6l17.6-17.5l-0.6-0.6L352.8,129.1z M794.6,127.4l0.6,0.6
			L811,112l-0.4-0.4L794.6,127.4z M296.2,149.6l0.6,0.4l38.4-38.2l-0.6-0.4L296.2,149.6z M917.4,149.6l0.6,0.4l38.4-38.2l-0.6-0.4
			L917.4,149.6z M153.4,128.7l0.6,0.4l17.6-17.5l-0.6-0.4L153.4,128.7z M840.7,148.4l0.6,0.4l37.2-37l-0.4-0.6L840.7,148.4z
			 M1055.5,149.6l0.6,0.4l38.6-38.4l-0.6-0.6L1055.5,149.6z M842.7,128.5l0.6,0.6l18-17.9l-0.6-0.4L842.7,128.5z M351.6,148.2
			l0.6,0.6l37.8-37.8l-0.6-0.4L351.6,148.2z M793.6,146.1l0.6,0.6l36.6-36.4l-0.6-0.6L793.6,146.1z M662.9,132.3l0.6,0.4l23-22.8
			l-0.6-0.6L662.9,132.3z M85.8,128.9l0.6,0.6l20.2-20.3l-0.4-0.6L85.8,128.9z M274.2,131.3l0.6,0.6l23-23l-0.6-0.4L274.2,131.3z
			 M499.8,126.8l0.6,0.4l18.2-18.1l-0.6-0.6L499.8,126.8z M895.4,131.3l0.6,0.6l23-23l-0.6-0.4L895.4,131.3z M1000.2,126.8l0.6,0.4
			l18.2-18.1l-0.6-0.6L1000.2,126.8z M12.7,130.9l0.6,0.4l23.2-22.8l-0.6-0.6L12.7,130.9z M578.7,130.9l0.6,0.4l23-22.8l-0.4-0.6
			L578.7,130.9z M185.8,130.7l0.4,0.4l23.2-22.8l-0.6-0.6L185.8,130.7z M407.1,130.7l0.4,0.4l23.2-22.8l-0.6-0.6L407.1,130.7z
			 M464.6,130.7l0.4,0.4l23.2-22.8l-0.6-0.6L464.6,130.7z M624.2,130.7l0.4,0.4l23.2-22.8l-0.6-0.6L624.2,130.7z M695.3,130.7
			l0.4,0.4l23.2-22.8l-0.6-0.6L695.3,130.7z M965,130.7l0.4,0.4l23.2-22.8l-0.6-0.6L965,130.7z M1034.3,130.7l0.4,0.4l23.2-22.8
			l-0.6-0.6L1034.3,130.7z M153.2,124.4l0.6,0.6l17.4-17.3l-0.6-0.6L153.2,124.4z M353,124.4l0.6,0.6l17.6-17.5l-0.6-0.6L353,124.4z
			 M794.8,122.6l0.6,0.6l16.2-15.9l-0.6-0.6L794.8,122.6z M312.4,128.9l0.6,0.6l23.2-23l-0.6-0.6L312.4,128.9z M843.1,123.6l0.6,0.6
			l17.8-17.7l-0.6-0.6L843.1,123.6z M933.7,128.9l0.6,0.6l23.2-23l-0.6-0.6L933.7,128.9z M1071.9,128.7l0.6,0.6l23.2-23l-0.6-0.6
			L1071.9,128.7z M860.6,124.2l0.6,0.4l19.4-19.3l-0.6-0.6L860.6,124.2z M369.5,126l0.6,0.6l21.8-21.7l-0.6-0.6L369.5,126z
			 M499.8,122.2l0.6,0.6l18.2-18.3l-0.6-0.4L499.8,122.2z M1000.2,122.2l0.6,0.6l18.2-18.3l-0.6-0.4L1000.2,122.2z M86.2,124
			l0.6,0.6l20.2-20.1l-0.6-0.6L86.2,124z M663.8,126.8l0.6,0.6l23-23l-0.6-0.4L663.8,126.8z M810,125.4l0.6,0.6l22-21.9l-0.6-0.6
			L810,125.4z M153,120.1l0.6,0.6l17.2-17.1l-0.4-0.6L153,120.1z M275.2,125.8l0.6,0.6l23-22.8l-0.6-0.6L275.2,125.8z M896.4,125.8
			l0.6,0.6l23-22.8l-0.6-0.6L896.4,125.8z M115.7,130.7l0.4,0.4l28.1-27.8l-0.6-0.6L115.7,130.7z M13.7,125.4l0.6,0.6l23.2-23
			l-0.6-0.4L13.7,125.4z M579.7,125.4l0.6,0.6l23-23l-0.4-0.4L579.7,125.4z M465.4,125.2l0.6,0.6l23.2-23l-0.6-0.4L465.4,125.2z
			 M965.7,125.2l0.6,0.6l23.2-23l-0.6-0.4L965.7,125.2z M1035.1,125.2l0.6,0.6l23-22.8l-0.4-0.6L1035.1,125.2z M186.6,125.2l0.6,0.6
			l23.2-23l-0.6-0.6L186.6,125.2z M407.9,125.2l0.6,0.6l23.2-23l-0.6-0.6L407.9,125.2z M625,125.2l0.6,0.6l23.2-23l-0.6-0.6
			L625,125.2z M696.1,125.2l0.6,0.6l23.2-23l-0.6-0.6L696.1,125.2z M353.4,119.7l0.6,0.6l17.8-17.7l-0.6-0.6L353.4,119.7z
			 M795,118.1l0.6,0.4l16.4-16.1l-0.6-0.6L795,118.1z M843.5,118.7l0.6,0.6l17.8-17.5l-0.6-0.6L843.5,118.7z M313.4,123.6l0.6,0.4
			l23.2-22.8l-0.6-0.6L313.4,123.6z M934.6,123.6l0.6,0.4l23.2-22.8l-0.6-0.6L934.6,123.6z M1072.9,123.2l0.6,0.6l23.2-23l-0.6-0.4
			L1072.9,123.2z M499.8,117.9l0.6,0.4l18.2-18.1l-0.6-0.6L499.8,117.9z M1000.2,117.9l0.6,0.4l18.2-18.1l-0.6-0.6L1000.2,117.9z
			 M86.6,119.3l0.6,0.4l20-19.9l-0.6-0.6L86.6,119.3z M152.8,115.9l0.6,0.6l17.2-17.1l-0.6-0.6L152.8,115.9z M664.8,121.5l0.6,0.4
			l23-22.8l-0.6-0.6L664.8,121.5z M862.1,118.1l0.6,0.6L882.5,99l-0.6-0.6L862.1,118.1z M371.3,119.9l0.6,0.4l22-21.7l-0.6-0.6
			L371.3,119.9z M276.2,120.5l0.6,0.6l23-23l-0.6-0.4L276.2,120.5z M811.8,119.3l0.6,0.6l21.8-21.7l-0.6-0.6L811.8,119.3z
			 M897.4,120.5l0.6,0.6l23-23l-0.6-0.4L897.4,120.5z M353.6,115l0.6,0.6L372,97.6l-0.6-0.4L353.6,115z M14.7,120.1l0.6,0.4l23-22.8
			L37.9,97L14.7,120.1z M580.6,120.1l0.6,0.4l23-22.8l-0.4-0.6L580.6,120.1z M187.6,119.9l0.6,0.4l23.2-22.8l-0.6-0.6L187.6,119.9z
			 M408.9,119.9l0.6,0.4l23.2-22.8l-0.6-0.6L408.9,119.9z M466.3,119.9l0.6,0.4l23-22.8l-0.4-0.6L466.3,119.9z M626,119.9l0.6,0.4
			l23.2-22.8l-0.6-0.6L626,119.9z M697.1,119.9l0.6,0.4l23.2-22.8l-0.6-0.6L697.1,119.9z M795.4,113.4l0.6,0.6l16.6-16.5l-0.6-0.6
			L795.4,113.4z M966.7,119.9l0.6,0.4l23-22.8l-0.4-0.6L966.7,119.9z M1036.1,119.9l0.6,0.4l23-22.8l-0.4-0.6L1036.1,119.9z
			 M844.1,113.8l0.6,0.6l17.6-17.5l-0.6-0.6L844.1,113.8z M499.6,113.4l0.6,0.6l18.2-18.3l-0.6-0.4L499.6,113.4z M1000,113.4
			l0.6,0.6l18.2-18.3l-0.6-0.4L1000,113.4z M314.4,118.1l0.6,0.6l23.2-23l-0.6-0.6L314.4,118.1z M935.6,118.1l0.6,0.6l23.2-23
			l-0.6-0.6L935.6,118.1z M48.6,121.5l0.6,0.6l26.7-26.8l-0.6-0.4L48.6,121.5z M46.6,127.8l0.6,0.6l33.3-33.1l-0.6-0.4L46.6,127.8z
			 M44.8,134.1l0.6,0.6l39.4-39.4l-0.6-0.4L44.8,134.1z M1073.9,117.9l0.6,0.6l23.2-23l-0.6-0.6L1073.9,117.9z M87,114.4l0.6,0.6
			l19.8-19.9l-0.6-0.4L87,114.4z M152.6,111.6l0.6,0.6l17-16.9l-0.6-0.6L152.6,111.6z M116.5,125.2l0.6,0.6l32.3-32.1l-0.6-0.6
			L116.5,125.2z M665.8,115.9l0.6,0.6l23-23l-0.6-0.4L665.8,115.9z M354,110.2l0.6,0.6l18-17.9l-0.6-0.6L354,110.2z M277.2,115
			l0.6,0.6l23-22.8l-0.6-0.6L277.2,115z M898.4,115l0.6,0.6l23-22.8l-0.6-0.6L898.4,115z M795.6,108.7l0.6,0.6L813,92.5l-0.6-0.6
			L795.6,108.7z M863.9,112l0.6,0.6l20.2-20.1l-0.6-0.6L863.9,112z M15.7,114.6l0.6,0.6l23-23l-0.6-0.4L15.7,114.6z M372.8,113.8
			l0.6,0.4l22-21.8l-0.4-0.6L372.8,113.8z M581.6,114.6l0.6,0.6l23-23l-0.4-0.4L581.6,114.6z M813.4,113l0.6,0.6l21.6-21.5l-0.6-0.4
			L813.4,113z M467.3,114.4l0.6,0.6l23-22.8l-0.6-0.6L467.3,114.4z M844.5,108.9l0.6,0.6l17.4-17.3l-0.4-0.6L844.5,108.9z
			 M967.7,114.4l0.6,0.6l23-22.8l-0.6-0.6L967.7,114.4z M1037.1,114.4l0.6,0.6l23-22.8l-0.6-0.6L1037.1,114.4z M188.6,114.4l0.6,0.6
			l23.2-23l-0.6-0.6L188.6,114.4z M409.9,114.4l0.6,0.6l23.2-23l-0.6-0.6L409.9,114.4z M627,114.4l0.6,0.6l23.2-23l-0.6-0.6
			L627,114.4z M698.1,114.4l0.6,0.6l23.2-23l-0.6-0.6L698.1,114.4z M499.6,109.1l0.6,0.4l18.2-18.1l-0.6-0.6L499.6,109.1z
			 M1000,109.1l0.6,0.4l18.2-18.1l-0.6-0.6L1000,109.1z M152.4,107.5l0.6,0.4l16.8-16.7l-0.4-0.6L152.4,107.5z M50.3,115.2l0.6,0.6
			l25-25l-0.4-0.4L50.3,115.2z M86,111l0.6,0.4l21.2-21.1l-0.6-0.4L86,111z M315.4,112.8l0.6,0.4l23-22.8l-0.4-0.6L315.4,112.8z
			 M936.6,112.8l0.6,0.4l23-22.8l-0.4-0.6L936.6,112.8z M1074.9,112.4l0.6,0.6l23-22.8l-0.4-0.6L1074.9,112.4z M666.8,110.6l0.6,0.4
			l23-22.8l-0.6-0.6L666.8,110.6z M354.2,105.5l0.6,0.6l18-18.1l-0.6-0.6L354.2,105.5z M795.8,103.9l0.6,0.6l17-16.9l-0.6-0.6
			L795.8,103.9z M278.2,109.6l0.4,0.6l23.2-22.8l-0.6-0.6L278.2,109.6z M899.4,109.6l0.4,0.6L923,87.4l-0.6-0.6L899.4,109.6z
			 M845.1,103.9l0.6,0.6l17.4-17.3l-0.6-0.6L845.1,103.9z M152.2,103.2l0.6,0.6L169.6,87l-0.6-0.6L152.2,103.2z M499.6,104.5
			l0.6,0.6l18.2-18.3l-0.6-0.4L499.6,104.5z M1000,104.5l0.6,0.6l18.2-18.3l-0.6-0.4L1000,104.5z M16.7,109.3l0.6,0.4l23-22.8
			l-0.6-0.6L16.7,109.3z M582.6,109.3l0.6,0.4l23-22.8l-0.4-0.6L582.6,109.3z M189.6,109.1l0.6,0.4l23.2-22.8l-0.6-0.6L189.6,109.1z
			 M410.9,109.1l0.6,0.4l23.2-22.8l-0.6-0.6L410.9,109.1z M468.3,109.1l0.6,0.4l23-22.8l-0.6-0.6L468.3,109.1z M628,109.1l0.6,0.4
			l23.2-22.8l-0.6-0.6L628,109.1z M699.1,109.1l0.6,0.4l23.2-22.8l-0.6-0.6L699.1,109.1z M968.7,109.1l0.6,0.4l23-22.8l-0.6-0.6
			L968.7,109.1z M1038,109.1l0.6,0.4l23-22.8L1061,86L1038,109.1z M815.2,106.9l0.6,0.6l21.4-21.3l-0.6-0.6L815.2,106.9z
			 M865.5,106.1l0.6,0.4l20.4-20.3l-0.4-0.6L865.5,106.1z M374.6,107.5l0.6,0.6l22.2-22l-0.6-0.6L374.6,107.5z M81.4,111l0.6,0.4
			l26-25.6l-0.6-0.6L81.4,111z M316.2,107.3l0.6,0.6l23-23l-0.4-0.4L316.2,107.3z M937.4,107.3l0.6,0.6l23-23l-0.4-0.4L937.4,107.3z
			 M52.3,108.9l0.6,0.6l24.8-24.8l-0.6-0.4L52.3,108.9z M1075.9,107.1l0.6,0.6l23-23l-0.4-0.6L1075.9,107.1z M354.6,100.8l0.6,0.4
			l18.2-17.9l-0.6-0.6L354.6,100.8z M152,98.8l0.6,0.6l16.6-16.5l-0.6-0.6L152,98.8z M667.8,105.1l0.6,0.6l23-22.8l-0.6-0.6
			L667.8,105.1z M796,99.4l0.6,0.4l17.2-17.1l-0.6-0.6L796,99.4z M845.5,99l0.6,0.6l17.2-17.1l-0.4-0.6L845.5,99z M278.9,104.3
			l0.6,0.4l23-22.8l-0.6-0.6L278.9,104.3z M900.2,104.3l0.6,0.4l23-22.8l-0.6-0.6L900.2,104.3z M17.7,103.7l0.4,0.6l23.2-23
			l-0.6-0.4L17.7,103.7z M583.6,103.7l0.6,0.6l23-23l-0.4-0.4L583.6,103.7z M1039,103.5l0.6,0.6l23-23l-0.6-0.4L1039,103.5z
			 M77.1,111l0.6,0.4l30.7-30.3l-0.6-0.6L77.1,111z M817,100.8l0.6,0.6l21.2-21.3l-0.6-0.4L817,100.8z M376.2,101.4l0.6,0.6
			l22.4-22.2l-0.6-0.6L376.2,101.4z M867.1,100l0.6,0.6l20.8-20.9l-0.6-0.6L867.1,100z M317.2,102l0.6,0.4l23-22.8l-0.4-0.6
			L317.2,102z M938.4,102l0.6,0.4l23-22.8l-0.4-0.6L938.4,102z M1076.7,101.6l0.6,0.6l23-22.8l-0.4-0.6L1076.7,101.6z M151.8,94.7
			l0.6,0.6l16.4-16.5l-0.6-0.6L151.8,94.7z M234.8,81.9l0.6,0.4l3.6-3.5l-0.6-0.6L234.8,81.9z M456,81.9l0.6,0.4l3.6-3.5l-0.6-0.6
			L456,81.9z M744.3,81.9l0.6,0.4l3.6-3.5l-0.6-0.6L744.3,81.9z M54.1,102.6l0.6,0.4l24.6-24.4L78.7,78L54.1,102.6z M354.8,95.9
			l0.6,0.6l18.2-18.1l-0.6-0.6L354.8,95.9z M796.2,94.7l0.6,0.6l17.4-17.5l-0.6-0.4L796.2,94.7z M845.9,94.1l0.6,0.6l17.2-17.1
			l-0.6-0.6L845.9,94.1z M668.6,99.8l0.6,0.4l23-22.8l-0.6-0.6L668.6,99.8z M279.9,98.8l0.6,0.6l23-22.8l-0.6-0.6L279.9,98.8z
			 M901.2,98.8l0.6,0.6l23-22.8l-0.6-0.6L901.2,98.8z M72.5,111l0.6,0.4l35.5-35l-0.6-0.6L72.5,111z M18.4,98.4L19,99l23.2-23
			l-0.6-0.6L18.4,98.4z M584.4,98.4L585,99l23-23l-0.4-0.6L584.4,98.4z M121.5,98.2l0.6,0.6l23.2-23.2l-0.6-0.4L121.5,98.2z
			 M1040,98.2l0.6,0.6l23-23l-0.4-0.6L1040,98.2z M151.6,90.4l0.6,0.6l16.4-16.3l-0.6-0.4L151.6,90.4z M318.2,96.5l0.6,0.6l23-23
			l-0.4-0.4L318.2,96.5z M818.8,94.5l0.6,0.6l21-20.9l-0.6-0.6L818.8,94.5z M939.4,96.5L940,97l23-23l-0.4-0.4L939.4,96.5z
			 M1077.7,96.3l0.6,0.6l23-23l-0.4-0.6L1077.7,96.3z M230.4,81.9l0.6,0.4l8.9-8.9l-0.4-0.6L230.4,81.9z M355.2,91.1l0.6,0.6
			l18.4-18.3l-0.6-0.6L355.2,91.1z M378,95.3l0.6,0.6l22.6-22.4l-0.6-0.6L378,95.3z M451.7,81.9l0.6,0.4l8.9-8.9l-0.4-0.6
			L451.7,81.9z M739.9,81.9l0.6,0.4l8.9-8.9l-0.4-0.6L739.9,81.9z M868.7,93.9l0.6,0.6l21.2-21.1l-0.6-0.6L868.7,93.9z M796.4,90
			l0.6,0.6L814.6,73l-0.6-0.6L796.4,90z M846.5,89.2l0.6,0.6l17-16.9l-0.6-0.6L846.5,89.2z M56.1,96.1l0.6,0.6L81,72.4l-0.6-0.6
			L56.1,96.1z M669.6,94.3l0.6,0.6l23-22.8l-0.6-0.6L669.6,94.3z M89,90.2l0.6,0.6l19.2-19.1l-0.6-0.6L89,90.2z M280.9,93.5l0.6,0.6
			l23-23l-0.6-0.6L280.9,93.5z M470.3,98.2l0.6,0.6l27.9-28l-0.6-0.4L470.3,98.2z M469.3,103.5l0.6,0.6l33.3-33.3l-0.4-0.4
			L469.3,103.5z M491.7,85.8l0.6,0.4l15.5-15.4l-0.6-0.4L491.7,85.8z M902.2,93.5l0.6,0.6l23-23l-0.6-0.6L902.2,93.5z M970.7,98.2
			l0.6,0.6l27.9-28l-0.6-0.4L970.7,98.2z M969.7,103.5l0.6,0.6l33.3-33.3l-0.4-0.4L969.7,103.5z M992.1,85.8l0.6,0.4l15.5-15.4
			l-0.6-0.4L992.1,85.8z M19.4,92.9l0.6,0.6l23.2-23l-0.6-0.4L19.4,92.9z M117.5,119.9l0.6,0.4l50.1-49.8l-0.6-0.4L117.5,119.9z
			 M585.4,92.9l0.6,0.6l23-23l-0.4-0.4L585.4,92.9z M471.1,92.7l0.6,0.6l23.2-23l-0.6-0.4L471.1,92.7z M971.5,92.7l0.6,0.6l23.2-23
			l-0.6-0.4L971.5,92.7z M1040.8,92.7l0.6,0.6l23-23l-0.4-0.4L1040.8,92.7z M122.3,92.7l0.6,0.6l23.2-23l-0.6-0.6L122.3,92.7z
			 M499.6,100.2l0.6,0.4l31.7-31.5l-0.6-0.6L499.6,100.2z M1000,100.2l0.6,0.4l31.7-31.5l-0.6-0.6L1000,100.2z M319.2,91.1l0.6,0.6
			l23-23l-0.6-0.6L319.2,91.1z M355.4,86.4L356,87l18.4-18.3l-0.6-0.6L355.4,86.4z M940.4,91.1l0.6,0.6l23-23l-0.6-0.6L940.4,91.1z
			 M1078.7,90.9l0.6,0.4l23-22.8l-0.6-0.6L1078.7,90.9z M820.3,88.4l0.6,0.6l20.8-20.9l-0.6-0.4L820.3,88.4z M225.9,81.9l0.6,0.4
			l14.5-14.2l-0.6-0.6L225.9,81.9z M447.1,81.9l0.6,0.4l14.5-14.2l-0.6-0.6L447.1,81.9z M735.4,81.9l0.6,0.4l14.5-14.2l-0.6-0.6
			L735.4,81.9z M796.6,85.2l0.6,0.6L815,68.1l-0.6-0.6L796.6,85.2z M846.9,84.3l0.6,0.6l17-16.9l-0.6-0.4L846.9,84.3z M379.6,89.2
			l0.6,0.6L403,67.1l-0.6-0.6L379.6,89.2z M89.4,85.2l0.6,0.6l19-18.9l-0.6-0.6L89.4,85.2z M630.8,92.7l0.6,0.6l26.5-26.6l-0.4-0.4
			L630.8,92.7z M630,98.2l0.6,0.6l32.1-32.1l-0.6-0.4L630,98.2z M629,103.5l0.6,0.6L667,66.7l-0.4-0.4L629,103.5z M654.3,82.9
			l0.6,0.4l16.6-16.5l-0.6-0.4L654.3,82.9z M870.3,87.8l0.6,0.6l21.6-21.5l-0.6-0.6L870.3,87.8z M670.6,89l0.6,0.4l23-22.8l-0.6-0.6
			L670.6,89z M57.9,89.8l0.6,0.6l24.2-24L82,65.7L57.9,89.8z M192.4,92.7l0.6,0.6l27.1-27.2l-0.4-0.4L192.4,92.7z M191.6,98.2
			l0.6,0.6l32.7-32.7l-0.6-0.4L191.6,98.2z M190.6,103.5l0.6,0.6l38-38l-0.4-0.4L190.6,103.5z M216.9,81.9l0.6,0.4l16.2-16.1
			l-0.6-0.4L216.9,81.9z M221.5,81.9l0.6,0.4l16.2-16.1l-0.6-0.4L221.5,81.9z M413.6,92.7l0.6,0.6l27.1-27.2l-0.4-0.4L413.6,92.7z
			 M412.9,98.2l0.6,0.6l32.7-32.7l-0.6-0.4L412.9,98.2z M411.9,103.5l0.6,0.6l38-38l-0.4-0.4L411.9,103.5z M438.2,81.9l0.6,0.4
			l16.2-16.1l-0.6-0.4L438.2,81.9z M442.8,81.9l0.6,0.4l16.2-16.1l-0.6-0.4L442.8,81.9z M701.9,92.7l0.6,0.6l27.1-27.2l-0.4-0.4
			L701.9,92.7z M701.1,98.2l0.6,0.6l32.7-32.7l-0.6-0.4L701.1,98.2z M700.1,103.5l0.6,0.6l38-38l-0.4-0.4L700.1,103.5z M726.4,81.9
			l0.6,0.4l16.2-16.1l-0.6-0.4L726.4,81.9z M731,81.9l0.6,0.4l16.2-16.1l-0.6-0.4L731,81.9z M118.5,114.4l0.6,0.6l49.1-48.8
			l-0.6-0.6L118.5,114.4z M281.9,88l0.6,0.6l23-22.8l-0.6-0.6L281.9,88z M903.1,88l0.6,0.6l23-22.8l-0.6-0.6L903.1,88z M20.4,87.6
			l0.6,0.6l23.2-23l-0.6-0.6L20.4,87.6z M586.4,87.6l0.6,0.6l23-23l-0.4-0.6L586.4,87.6z M123.2,87.4l0.6,0.6L147,65l-0.6-0.6
			L123.2,87.4z M193.4,87.4L194,88l23-23l-0.6-0.6L193.4,87.4z M414.6,87.4l0.6,0.6l23-23l-0.6-0.6L414.6,87.4z M472.1,87.4l0.6,0.6
			l23.2-23l-0.6-0.6L472.1,87.4z M631.8,87.4l0.6,0.6l23.2-23l-0.6-0.6L631.8,87.4z M702.9,87.4l0.6,0.6l23-23l-0.6-0.6L702.9,87.4z
			 M972.5,87.4l0.6,0.6l23.2-23l-0.6-0.6L972.5,87.4z M1041.8,87.4l0.6,0.6l23-23l-0.4-0.6L1041.8,87.4z M355.8,81.7l0.6,0.6
			L375,63.8l-0.6-0.6L355.8,81.7z M499.6,95.7l0.6,0.6l32.7-32.5l-0.6-0.6L499.6,95.7z M1000,95.7l0.6,0.6l32.7-32.5l-0.6-0.6
			L1000,95.7z M320.1,85.6l0.6,0.6l23-22.8l-0.6-0.6L320.1,85.6z M941.4,85.6l0.6,0.6l23-22.8l-0.6-0.6L941.4,85.6z M797,80.5
			l0.6,0.6l18-17.9l-0.6-0.6L797,80.5z M847.5,79.3l0.6,0.6l16.8-16.7l-0.6-0.6L847.5,79.3z M1079.6,85.4l0.6,0.6l23-23l-0.6-0.4
			L1079.6,85.4z M89.8,80.5l0.6,0.4l18.8-18.7l-0.6-0.6L89.8,80.5z M822.1,82.3l0.6,0.4l20.6-20.5l-0.4-0.6L822.1,82.3z M671.6,83.5
			l0.6,0.6l23-22.8l-0.6-0.6L671.6,83.5z M381.4,83.1l0.6,0.6l23-22.8l-0.6-0.6L381.4,83.1z M871.8,81.9l0.6,0.4l22-21.7l-0.6-0.6
			L871.8,81.9z M59.9,83.5l0.6,0.6l24-23.8l-0.6-0.6L59.9,83.5z M282.9,82.7l0.6,0.6l23-23l-0.6-0.6L282.9,82.7z M904.1,82.7
			l0.6,0.6l23-23l-0.6-0.6L904.1,82.7z M21.4,82.1l0.6,0.6l23-22.8l-0.4-0.6L21.4,82.1z M587.4,82.1l0.6,0.6l23-22.8l-0.4-0.6
			L587.4,82.1z M194.4,81.9l0.6,0.6l23-22.8l-0.4-0.6L194.4,81.9z M415.6,81.9l0.6,0.6l23-22.8l-0.4-0.6L415.6,81.9z M473.1,81.9
			l0.6,0.6l23.2-23l-0.6-0.4L473.1,81.9z M703.9,81.9l0.6,0.6l23-22.8l-0.4-0.6L703.9,81.9z M973.5,81.9l0.6,0.6l23.2-23l-0.6-0.4
			L973.5,81.9z M1042.8,81.9l0.6,0.6l23.2-23l-0.6-0.4L1042.8,81.9z M124.2,81.9l0.6,0.6l23.2-23l-0.6-0.6L124.2,81.9z M632.7,81.9
			l0.6,0.6l23.2-23l-0.6-0.6L632.7,81.9z M356,77l0.6,0.6l18.6-18.5l-0.6-0.6L356,77z M499.6,91.3l0.6,0.4l33.7-33.5l-0.6-0.4
			L499.6,91.3z M847.9,74.4l0.6,0.6l16.8-16.7l-0.6-0.4L847.9,74.4z M1000,91.3l0.6,0.4l33.7-33.5l-0.6-0.4L1000,91.3z M797.2,76
			l0.6,0.4L816,58.3l-0.6-0.6L797.2,76z M321.1,80.3l0.6,0.6l23-23l-0.6-0.6L321.1,80.3z M942.4,80.3l0.6,0.6l23-23l-0.6-0.6
			L942.4,80.3z M1080.6,80.1l0.6,0.4l23-22.8l-0.6-0.6L1080.6,80.1z M90.2,75.6l0.6,0.6l18.8-18.7l-0.6-0.6L90.2,75.6z M119.5,109.1
			l0.6,0.4l52.5-52l-0.6-0.6L119.5,109.1z M823.9,76l0.6,0.6l20.6-20.5l-0.6-0.4L823.9,76z M667.8,82.9l0.6,0.4l27.7-27.6l-0.6-0.6
			L667.8,82.9z M283.7,77.2l0.6,0.6l23-22.8l-0.4-0.6L283.7,77.2z M904.9,77.2l0.6,0.6l23-22.8l-0.4-0.6L904.9,77.2z M382.9,77
			l0.6,0.6l23-23l-0.4-0.4L382.9,77z M22.4,76.8l0.6,0.6l23-23l-0.6-0.6L22.4,76.8z M588.4,76.8l0.6,0.6l23-23l-0.4-0.6L588.4,76.8z
			 M61.6,77.2l0.6,0.6L86,54.1l-0.6-0.6L61.6,77.2z M125.2,76.6l0.6,0.6l23.2-23l-0.6-0.6L125.2,76.6z M195.4,76.6l0.6,0.6l23-23
			l-0.4-0.6L195.4,76.6z M356.4,72.2l0.6,0.6l18.8-18.7l-0.6-0.6L356.4,72.2z M416.6,76.6l0.6,0.6l23-23l-0.4-0.6L416.6,76.6z
			 M474.1,76.6l0.6,0.6l23.2-23l-0.6-0.6L474.1,76.6z M633.7,76.6l0.6,0.6l23.2-23l-0.6-0.6L633.7,76.6z M704.9,76.6l0.6,0.6l23-23
			l-0.4-0.6L704.9,76.6z M873.4,75.8l0.6,0.6l22.2-22.2l-0.4-0.6L873.4,75.8z M974.5,76.6l0.6,0.6l23.2-23l-0.6-0.6L974.5,76.6z
			 M1043.8,76.6l0.6,0.6l23.2-23l-0.6-0.6L1043.8,76.6z M848.3,69.5l0.6,0.6l16.6-16.5l-0.6-0.6L848.3,69.5z M797.4,71.3l0.6,0.6
			l18.4-18.5l-0.4-0.6L797.4,71.3z M499.6,86.8l0.6,0.6L534.9,53l-0.6-0.6L499.6,86.8z M1000,86.8l0.6,0.6l34.7-34.4l-0.6-0.6
			L1000,86.8z M90.6,70.7l0.6,0.6l18.6-18.5l-0.6-0.6L90.6,70.7z M321.9,74.8l0.6,0.6l23-22.8l-0.6-0.6L321.9,74.8z M943.2,74.8
			l0.6,0.6l23-22.8l-0.6-0.6L943.2,74.8z M1081.6,74.6l0.6,0.6l23-22.8l-0.6-0.6L1081.6,74.6z M663.2,82.9l0.6,0.4l33.3-32.9
			l-0.6-0.6L663.2,82.9z M825.7,69.9l0.6,0.6l20.4-20.3l-0.6-0.6L825.7,69.9z M284.7,71.8l0.6,0.6l23-23l-0.4-0.6L284.7,71.8z
			 M905.9,71.8l0.6,0.6l23-23l-0.4-0.6L905.9,71.8z M356.6,67.5l0.6,0.6L376,49.2l-0.6-0.6L356.6,67.5z M23.4,71.3l0.6,0.6L47,49
			l-0.6-0.6L23.4,71.3z M589.4,71.3l0.6,0.6l23-22.8l-0.4-0.6L589.4,71.3z M120.5,103.5l0.6,0.6l55.7-55.3l-0.6-0.6L120.5,103.5z
			 M196.3,71.1l0.6,0.6l23-23l-0.4-0.4L196.3,71.1z M417.6,71.1l0.6,0.6l23-23l-0.4-0.4L417.6,71.1z M475.1,71.1l0.6,0.6l23.2-23
			l-0.6-0.4L475.1,71.1z M705.8,71.1l0.6,0.6l23-23l-0.4-0.4L705.8,71.1z M848.9,64.6l0.6,0.6l16.4-16.3l-0.4-0.6L848.9,64.6z
			 M975.5,71.1l0.6,0.6l23.2-23l-0.6-0.4L975.5,71.1z M1044.8,71.1l0.6,0.6l23.2-23l-0.6-0.4L1044.8,71.1z M126.2,71.1l0.6,0.6
			l23.2-23l-0.6-0.6L126.2,71.1z M634.7,71.1l0.6,0.6l23.2-23l-0.6-0.6L634.7,71.1z M384.7,70.9l0.6,0.6l23.2-23.2l-0.6-0.4
			L384.7,70.9z M797.6,66.5l0.6,0.6l18.6-18.7l-0.4-0.6L797.6,66.5z M63.6,70.9l0.6,0.6L87.8,48l-0.6-0.6L63.6,70.9z M91,65.9
			l0.6,0.4L110,48l-0.6-0.6L91,65.9z M875,69.7l0.6,0.6l22.6-22.4l-0.6-0.6L875,69.7z M496.3,85.8l0.6,0.4l39-38.6l-0.6-0.6
			L496.3,85.8z M996.6,85.8l0.6,0.4l39-38.6l-0.6-0.6L996.6,85.8z M322.9,69.5l0.6,0.6l23-23l-0.6-0.4L322.9,69.5z M944.2,69.5
			l0.6,0.6l23-23l-0.6-0.4L944.2,69.5z M1082.6,69.3l0.6,0.4l23-22.8l-0.6-0.6L1082.6,69.3z M658.9,82.9l0.6,0.4l38.6-38.4l-0.6-0.6
			L658.9,82.9z M357,62.8l0.6,0.4l19-18.7l-0.6-0.6L357,62.8z M827.3,63.8l0.6,0.4l20.2-20.1l-0.6-0.4L827.3,63.8z M285.7,66.5
			l0.6,0.4l23-22.8l-0.4-0.6L285.7,66.5z M906.9,66.5l0.6,0.4l23-22.8l-0.4-0.6L906.9,66.5z M849.3,59.6l0.6,0.6l16.4-16.3l-0.6-0.6
			L849.3,59.6z M797.8,61.8l0.6,0.6l18.8-18.9l-0.4-0.4L797.8,61.8z M24.4,65.9l0.4,0.6l23.2-23l-0.6-0.6L24.4,65.9z M590.4,65.9
			l0.6,0.6l23-23l-0.4-0.6L590.4,65.9z M91.4,61l0.6,0.6l18.2-18.3l-0.4-0.6L91.4,61z M127.2,65.7l0.6,0.6l23.2-23l-0.6-0.6
			L127.2,65.7z M197.3,65.7l0.6,0.6l23.2-23l-0.6-0.6L197.3,65.7z M418.6,65.7l0.6,0.6l23.2-23l-0.6-0.6L418.6,65.7z M476,65.7
			l0.6,0.6l23.2-23l-0.6-0.6L476,65.7z M635.7,65.7l0.6,0.6l23.2-23l-0.6-0.6L635.7,65.7z M706.8,65.7l0.6,0.6l23.2-23l-0.6-0.6
			L706.8,65.7z M976.4,65.7l0.6,0.6l23.2-23l-0.6-0.6L976.4,65.7z M1045.8,65.7l0.6,0.6l23.2-23l-0.6-0.6L1045.8,65.7z M386.3,64.8
			l0.6,0.6l23.4-23.2l-0.6-0.6L386.3,64.8z M512.9,64.6l0.6,0.6l23.2-23l-0.6-0.6L512.9,64.6z M1013.3,64.6l0.6,0.6l23.2-23
			l-0.6-0.6L1013.3,64.6z M65.4,64.6l0.6,0.6l23.4-23.2l-0.6-0.6L65.4,64.6z M323.9,64l0.6,0.6l23-22.8l-0.6-0.6L323.9,64z
			 M945.1,64l0.6,0.6l23-22.8l-0.6-0.6L945.1,64z M1083.4,63.8l0.6,0.6l23-22.8l-0.6-0.6L1083.4,63.8z M876.6,63.8l0.6,0.4l23-22.8
			l-0.6-0.6L876.6,63.8z M146.8,72.8l0.6,0.6l33.3-33.3l-0.4-0.6L146.8,72.8z M357.2,58.1l0.6,0.4l19-18.9l-0.6-0.6L357.2,58.1z
			 M675.5,61.8l0.6,0.6l23-22.8l-0.6-0.6L675.5,61.8z M849.7,54.7l0.6,0.6l16.2-16.1l-0.6-0.6L849.7,54.7z M91.7,56.1l0.6,0.6
			l18.2-18.1l-0.6-0.4L91.7,56.1z M798,57.1l0.6,0.6l19.2-18.9l-0.6-0.6L798,57.1z M286.7,61l0.6,0.6l23-23l-0.4-0.6L286.7,61z
			 M907.9,61l0.6,0.6l23-23l-0.4-0.6L907.9,61z M25.2,60.4l0.6,0.6L49,38.2l-0.6-0.6L25.2,60.4z M591.1,60.4l0.6,0.6l23-22.8
			l-0.4-0.6L591.1,60.4z M829.1,57.5l0.6,0.6l20-19.9l-0.6-0.6L829.1,57.5z M128,60.2l0.6,0.6l23.2-23l-0.6-0.4L128,60.2z
			 M198.1,60.2l0.6,0.6l23.2-23l-0.6-0.4L198.1,60.2z M419.4,60.2l0.6,0.6l23.2-23l-0.6-0.4L419.4,60.2z M476.8,60.2l0.6,0.6
			L500.6,38l-0.6-0.6L476.8,60.2z M636.5,60.2l0.6,0.6l23.2-23l-0.6-0.4L636.5,60.2z M707.6,60.2l0.6,0.6l23.2-23l-0.6-0.4
			L707.6,60.2z M977.2,60.2l0.6,0.6L1001,38l-0.6-0.6L977.2,60.2z M1046.6,60.2l0.6,0.6l23.2-23l-0.6-0.6L1046.6,60.2z M513.9,59.3
			l0.6,0.6l23.2-23l-0.6-0.6L513.9,59.3z M1014.3,59.3l0.6,0.6l23.2-23l-0.6-0.6L1014.3,59.3z M324.9,58.7l0.6,0.6l23-22.8l-0.6-0.6
			L324.9,58.7z M946.1,58.7l0.6,0.6l23-22.8l-0.6-0.6L946.1,58.7z M1084.4,58.5l0.6,0.6l23-23l-0.6-0.6L1084.4,58.5z M67.4,58.3
			l0.6,0.4l23.2-22.8l-0.6-0.6L67.4,58.3z M387.9,58.7l0.6,0.6l23.6-23.4l-0.6-0.6L387.9,58.7z M878.2,57.7l0.6,0.6L902.2,35
			l-0.6-0.6L878.2,57.7z M357.6,53.2l0.6,0.6l19.2-19.1l-0.6-0.4L357.6,53.2z M850.3,49.8l0.6,0.6l16.2-16.1l-0.6-0.6L850.3,49.8z
			 M92.1,51.4l0.6,0.4l18-17.9l-0.6-0.4L92.1,51.4z M676.3,56.5l0.6,0.4l23-22.8l-0.6-0.6L676.3,56.5z M798.4,52.6l0.6,0.4
			l19.4-19.1l-0.6-0.6L798.4,52.6z M287.7,55.7l0.6,0.6l23.2-23l-0.6-0.6L287.7,55.7z M908.9,55.7l0.6,0.6l23.2-23l-0.6-0.6
			L908.9,55.7z M26.2,55.1l0.6,0.6l23.2-23l-0.6-0.6L26.2,55.1z M592.1,55.1l0.6,0.6l23-23l-0.4-0.6L592.1,55.1z M129,54.9l0.6,0.6
			l23.2-23l-0.6-0.6L129,54.9z M199.1,54.9l0.6,0.6l23.2-23l-0.6-0.6L199.1,54.9z M420.4,54.9l0.6,0.6l23.2-23l-0.6-0.6L420.4,54.9z
			 M477.8,54.9l0.6,0.6l23.2-23l-0.6-0.6L477.8,54.9z M637.5,54.9l0.6,0.6l23.2-23l-0.6-0.6L637.5,54.9z M708.6,54.9l0.6,0.6
			l23.2-23l-0.6-0.6L708.6,54.9z M978.2,54.9l0.6,0.6l23.2-23l-0.6-0.6L978.2,54.9z M1047.6,54.9l0.6,0.6l23.2-23l-0.6-0.6
			L1047.6,54.9z M830.8,51.4l0.6,0.6l19.8-19.9l-0.6-0.4L830.8,51.4z M150.8,64.6l0.6,0.6l33.9-33.7l-0.6-0.6L150.8,64.6z
			 M514.9,53.7l0.6,0.6l23.2-23l-0.6-0.4L514.9,53.7z M1015.3,53.7l0.6,0.6l23.2-23l-0.6-0.4L1015.3,53.7z M325.9,53.2l0.6,0.6
			l23-22.8l-0.6-0.6L325.9,53.2z M947.1,53.2l0.6,0.6l23-22.8l-0.6-0.6L947.1,53.2z M1085.4,53l0.6,0.6l23-22.8l-0.6-0.6L1085.4,53z
			 M357.8,48.4l0.6,0.6l19.2-19.1l-0.6-0.6L357.8,48.4z M69.2,51.8l0.6,0.6l23-22.8l-0.6-0.4L69.2,51.8z M389.7,52.6l0.6,0.6
			L414,29.5l-0.6-0.6L389.7,52.6z M850.7,44.9l0.6,0.6l16-15.9l-0.6-0.6L850.7,44.9z M92.5,46.5l0.6,0.6L111,29.3l-0.6-0.6
			L92.5,46.5z M798.6,47.8l0.6,0.6l19.6-19.5l-0.6-0.6L798.6,47.8z M677.3,51l0.6,0.6l23-22.8l-0.6-0.6L677.3,51z M879.8,51.6
			l0.6,0.6l23.8-23.6l-0.6-0.6L879.8,51.6z M288.5,50.2l0.6,0.6l23.2-23l-0.6-0.4L288.5,50.2z M909.7,50.2l0.6,0.6l23.2-23l-0.6-0.4
			L909.7,50.2z M27.2,49.6l0.6,0.6l23-22.8l-0.4-0.6L27.2,49.6z M593.1,49.6l0.6,0.6l23-22.8l-0.4-0.6L593.1,49.6z M130,49.4
			l0.6,0.6l23.2-22.8l-0.6-0.6L130,49.4z M478.8,49.4l0.6,0.6l23.2-22.8l-0.6-0.6L478.8,49.4z M638.5,49.4l0.6,0.6l23.2-22.8
			l-0.6-0.6L638.5,49.4z M979.2,49.4l0.6,0.6l23.2-22.8l-0.6-0.6L979.2,49.4z M200.1,49.4l0.6,0.6l23.2-23l-0.6-0.6L200.1,49.4z
			 M421.4,49.4L422,50l23.2-23l-0.6-0.6L421.4,49.4z M709.6,49.4l0.6,0.6l23.2-23l-0.6-0.6L709.6,49.4z M1048.5,49.4l0.6,0.6
			l23.2-23l-0.6-0.6L1048.5,49.4z M832.6,45.1l0.6,0.6l19.6-19.5l-0.6-0.6L832.6,45.1z M515.9,48.4l0.6,0.6l23.2-23l-0.6-0.6
			L515.9,48.4z M1016.3,48.4l0.6,0.6l23.2-23l-0.6-0.6L1016.3,48.4z M326.9,47.8l0.6,0.6l23-22.8l-0.6-0.6L326.9,47.8z M948.1,47.8
			l0.6,0.6l23-22.8l-0.6-0.6L948.1,47.8z M1086.4,47.6l0.6,0.6l23-23l-0.6-0.4L1086.4,47.6z M358.2,43.7l0.6,0.6L378.2,25l-0.6-0.6
			L358.2,43.7z M92.9,41.5l0.6,0.6l17.6-17.5l-0.4-0.6L92.9,41.5z M851.2,40l0.6,0.6l16-15.9l-0.6-0.6L851.2,40z M798.7,43.1
			l0.6,0.6L819.2,24l-0.6-0.6L798.7,43.1z M71.1,45.5l0.6,0.6l22.8-22.6L93.9,23L71.1,45.5z M391.3,46.5l0.6,0.4l23.8-23.6l-0.4-0.6
			L391.3,46.5z M678.3,45.7l0.6,0.6l23-23l-0.6-0.6L678.3,45.7z M154.5,56.3l0.6,0.6l34.3-34.1l-0.6-0.4L154.5,56.3z M289.4,44.9
			l0.6,0.6l23.2-23l-0.6-0.6L289.4,44.9z M910.7,44.9l0.6,0.6l23.2-23l-0.6-0.6L910.7,44.9z M881.6,45.5l0.6,0.6l24-23.8l-0.4-0.6
			L881.6,45.5z M28.2,44.3l0.6,0.6l23-23l-0.4-0.6L28.2,44.3z M594.1,44.3l0.6,0.6l23-23l-0.4-0.6L594.1,44.3z M131,44.1l0.6,0.6
			l23.2-23l-0.6-0.6L131,44.1z M201.1,44.1l0.6,0.6l23.2-23l-0.6-0.6L201.1,44.1z M422.4,44.1l0.6,0.6l23.2-23l-0.6-0.6L422.4,44.1z
			 M479.8,44.1l0.6,0.6l23.2-23l-0.6-0.6L479.8,44.1z M639.5,44.1l0.6,0.6l23.2-23l-0.6-0.6L639.5,44.1z M710.6,44.1l0.6,0.6
			l23.2-23l-0.6-0.6L710.6,44.1z M980.2,44.1l0.6,0.6l23.2-23l-0.6-0.6L980.2,44.1z M1049.5,44.1l0.6,0.6l23.2-23l-0.6-0.6
			L1049.5,44.1z M516.9,42.9l0.6,0.6l23-22.8l-0.4-0.6L516.9,42.9z M1017.2,42.9l0.6,0.6l23-22.8l-0.4-0.6L1017.2,42.9z M358.4,39
			l0.6,0.6l19.4-19.3l-0.6-0.6L358.4,39z M327.9,42.5l0.6,0.4l23-22.8l-0.6-0.6L327.9,42.5z M949.1,42.5l0.6,0.4l23-22.8l-0.6-0.6
			L949.1,42.5z M93.3,36.8l0.6,0.6l17.6-17.5l-0.6-0.6L93.3,36.8z M851.6,35l0.6,0.6l15.8-15.7l-0.6-0.6L851.6,35z M1087.4,42.1
			l0.6,0.6l23-22.8l-0.6-0.6L1087.4,42.1z M798.9,38.4l0.6,0.6l20-19.9l-0.6-0.6L798.9,38.4z M679.3,40.2l0.6,0.6l23-22.8l-0.6-0.6
			L679.3,40.2z M393,40.4l0.6,0.4l24-23.8l-0.6-0.6L393,40.4z M29.1,38.8l0.6,0.6l23-22.8l-0.6-0.6L29.1,38.8z M595.1,38.8l0.6,0.6
			l23-22.8l-0.4-0.6L595.1,38.8z M132,38.8l0.6,0.4l23-22.8l-0.4-0.6L132,38.8z M480.8,38.8l0.6,0.4l23.2-22.8l-0.6-0.6L480.8,38.8z
			 M640.5,38.8l0.6,0.4l23-22.8l-0.4-0.6L640.5,38.8z M981.2,38.8l0.6,0.4l23.2-22.8l-0.6-0.6L981.2,38.8z M883.1,39.6l0.6,0.4
			l24.4-24.2l-0.6-0.6L883.1,39.6z M358.8,34.3l0.6,0.6L379,15.4l-0.6-0.6L358.8,34.3z M93.7,31.9l0.6,0.6l17.4-17.3l-0.6-0.6
			L93.7,31.9z M517.7,37.6l0.6,0.6l23-23l-0.4-0.6L517.7,37.6z M852,30.1l0.6,0.6L868.5,15l-0.6-0.4L852,30.1z M1018,37.6l0.6,0.6
			l23-23l-0.4-0.6L1018,37.6z M251.8,16.1l0.6,0.4L254,15l-0.6-0.6L251.8,16.1z M473.1,16.1l0.6,0.4l1.6-1.6l-0.6-0.6L473.1,16.1z
			 M761.3,16.1l0.6,0.4l1.6-1.6l-0.6-0.6L761.3,16.1z M328.7,37l0.6,0.6l23-22.8l-0.6-0.6L328.7,37z M949.9,37l0.6,0.6l23-22.8
			l-0.6-0.6L949.9,37z M1088.4,36.8l0.6,0.6l23-22.8l-0.6-0.6L1088.4,36.8z M158.3,48.2l0.6,0.6l34.7-34.4l-0.6-0.6L158.3,48.2z
			 M799.1,33.9l0.6,0.4l20.2-20.1l-0.6-0.6L799.1,33.9z M680.3,34.8l0.6,0.6l23-23l-0.6-0.4L680.3,34.8z M518.6,32.1l0.6,0.6
			l21.6-21.5l-0.4-0.6L518.6,32.1z M1019,32.1l0.6,0.6l21.6-21.5l-0.4-0.6L1019,32.1z M66,15.7l0.4,0.4l5.3-5.1l-0.6-0.6L66,15.7z
			 M329.7,31.7l0.6,0.4L351.6,11l-0.6-0.6L329.7,31.7z M632,15.7l0.6,0.4l5.3-5.1l-0.6-0.6L632,15.7z M950.9,31.7l0.6,0.4L972.9,11
			l-0.6-0.6L950.9,31.7z M133,33.3l0.6,0.6l23-23l-0.4-0.6L133,33.3z M641.5,33.3l0.6,0.6l23-23l-0.4-0.6L641.5,33.3z M1089.2,31.3
			l0.6,0.6l21.2-21.1l-0.6-0.6L1089.2,31.3z M359,29.5l0.6,0.6l19.6-19.7l-0.6-0.4L359,29.5z M394.6,34.1l0.6,0.6l24.2-24l-0.6-0.6
			L394.6,34.1z M94.1,27l0.6,0.6L112,10.4l-0.6-0.6L94.1,27z M852.6,25.2l0.6,0.6l15.7-15.6l-0.6-0.6L852.6,25.2z M247.3,16.1
			l0.6,0.4l7.1-6.9l-0.6-0.6L247.3,16.1z M468.5,16.1l0.6,0.4l7.1-6.9l-0.6-0.6L468.5,16.1z M756.8,16.1l0.6,0.4l7.1-6.9l-0.6-0.6
			L756.8,16.1z M799.3,29.1l0.6,0.6l20.4-20.5l-0.6-0.4L799.3,29.1z M884.7,33.5l0.6,0.6l24.8-24.6l-0.6-0.6L884.7,33.5z
			 M295.2,12.4l0.6,0.6l4-3.9l-0.6-0.6L295.2,12.4z M916.4,12.4L917,13l4-3.9l-0.6-0.6L916.4,12.4z M519.6,26.8l0.6,0.6l18.6-18.7
			l-0.4-0.6L519.6,26.8z M1020,26.8l0.6,0.6l18.6-18.7l-0.4-0.6L1020,26.8z M330.6,26.2l0.6,0.6l18.4-18.3l-0.6-0.6L330.6,26.2z
			 M951.9,26.2l0.6,0.6l18.4-18.3l-0.6-0.6L951.9,26.2z M1090.1,26l0.6,0.6L1109,8.5l-0.6-0.6L1090.1,26z M681.1,29.3l0.6,0.6
			l23-22.8l-0.6-0.6L681.1,29.3z M520.6,21.3l0.6,0.6l15.7-15.6l-0.4-0.6L520.6,21.3z M1021,21.3l0.6,0.6l15.6-15.6l-0.4-0.6
			L1021,21.3z M331.6,20.9l0.6,0.4l15.5-15.2l-0.6-0.6L331.6,20.9z M952.9,20.9l0.6,0.4l15.5-15.2l-0.6-0.6L952.9,20.9z
			 M1091.1,20.5l0.6,0.6L1107,5.9l-0.6-0.6L1091.1,20.5z M94.5,22.2l0.6,0.6l17.2-17.1l-0.6-0.6L94.5,22.2z M162.1,40l0.6,0.6
			l35.1-34.8l-0.6-0.6L162.1,40z M359.4,24.8l0.6,0.6l19.8-19.7l-0.6-0.6L359.4,24.8z M61.4,15.7l0.6,0.4L72.7,5.5l-0.6-0.6
			L61.4,15.7z M133.9,28l0.6,0.4l23-22.8l-0.4-0.6L133.9,28z M627.4,15.7l0.6,0.4l10.7-10.6l-0.6-0.6L627.4,15.7z M642.4,28l0.6,0.4
			l23-22.8l-0.4-0.6L642.4,28z M834.2,39l0.6,0.6l34.3-34.1l-0.6-0.6L834.2,39z M799.7,24.4l0.6,0.6l20.6-20.5l-0.6-0.6L799.7,24.4z
			 M242.7,16.1l0.6,0.4l12.5-12.4l-0.6-0.4L242.7,16.1z M396.4,28l0.6,0.6l24.4-24.2l-0.6-0.6L396.4,28z M464,16.1l0.6,0.4L477,4.1
			l-0.6-0.4L464,16.1z M752.2,16.1l0.6,0.4l12.5-12.4l-0.6-0.4L752.2,16.1z M519.6,17.9l0.6,0.6l14.7-14.8l-0.4-0.6L519.6,17.9z
			 M1020,17.9l0.6,0.6l14.7-14.8l-0.4-0.6L1020,17.9z M330.1,17.9l0.6,0.6l14.9-15L344.9,3L330.1,17.9z M951.3,17.9l0.6,0.6l14.9-15
			L966.1,3L951.3,17.9z M1089.5,17.7l0.6,0.6L1105,3.5l-0.6-0.6L1089.5,17.7z M886.3,27.4l0.6,0.6l25.2-25l-0.6-0.6L886.3,27.4z
			 M682.1,24l0.6,0.6l23-23L705,1.2L682.1,24z M517.5,15.7l0.6,0.4l14.9-14.8l-0.4-0.6L517.5,15.7z M1017.8,15.7l0.6,0.4l14.9-14.8
			l-0.4-0.6L1017.8,15.7z M327.5,16.1l0.6,0.4l15.5-15.4l-0.4-0.6L327.5,16.1z M948.7,16.1l0.6,0.4l15.5-15.4l-0.4-0.6L948.7,16.1z
			 M73.1,39.2l0.6,0.6l39-38.8l-0.6-0.6L73.1,39.2z M1086.8,16.1l0.6,0.4L1103,1l-0.6-0.6L1086.8,16.1z M359.6,20.1l0.6,0.4L380,0.8
			l-0.6-0.6L359.6,20.1z M19,0l-1.4,1.2l0.6,0.6l1.4-1.4L19,0z M23.4,0l-6.5,6.5l0.6,0.6L24,0.4L23.4,0z M28,0L15.9,12l0.6,0.6
			L28.6,0.4L28,0z M32.5,0L16.7,15.7l0.4,0.4L32.9,0.4L32.5,0z M36.9,0L21,15.7l0.6,0.4L37.5,0.4L36.9,0z M41.4,0L25.6,15.7l0.6,0.4
			L42,0.4L41.4,0z M46,0L30.1,15.7l0.4,0.4L46.4,0.4L46,0z M50.3,0L32.9,17.3l0.6,0.4L50.9,0.4L50.3,0z M54.9,0l-23,22.6l0.6,0.6
			l23-22.8L54.9,0z M59.3,0L30.9,28.2l0.6,0.4L59.9,0.4L59.3,0z M63.8,0L30.1,33.5l0.4,0.6L64.4,0.4L63.8,0z M68.4,0L52.5,15.7
			l0.4,0.4L68.8,0.4L68.4,0z M72.7,0L56.9,15.7l0.6,0.4L73.3,0.4L72.7,0z M85.8,0l-1.4,1.2L85,1.8l1.2-1.4L85.8,0z M90.2,0l-7.7,7.5
			L83,8.1l7.7-7.7L90.2,0z M94.7,0L80.7,14l0.6,0.4l14.1-14L94.7,0z M99.1,0L78.7,20.3l0.6,0.6L99.7,0.4L99.1,0z M103.6,0L76.9,26.6
			l0.6,0.6l26.7-26.8L103.6,0z M108,0L74.9,32.9l0.6,0.6l33.1-33.1L108,0z M139.7,0l-1,0.8l0.6,0.6l0.8-1L139.7,0z M144,0l-6.3,6.3
			l0.6,0.6l6.3-6.5L144,0z M148.6,0l-11.9,11.6l0.6,0.6L149,0.4L148.6,0z M153,0l-17.2,17.1l0.6,0.4l17.2-17.1L153,0z M157.5,0
			l-22.8,22.4l0.6,0.6l22.6-22.6L157.5,0z M184.5,0l-7.3,7.3l0.6,0.4l7.3-7.3L184.5,0z M189,0l-15.7,15.4l0.6,0.6l15.5-15.6L189,0z
			 M193.4,0l-23.8,23.6l0.6,0.6L194,0.4L193.4,0z M197.9,0l-32.1,31.9l0.6,0.4l32.1-31.9L197.9,0z M209.8,0l-1,0.8l0.6,0.6l0.8-1
			L209.8,0z M214.2,0l-6.3,6.3l0.6,0.6l6.3-6.5L214.2,0z M218.7,0l-11.9,11.6l0.6,0.6l11.7-11.8L218.7,0z M223.1,0l-17.2,17.1
			l0.6,0.4l17.2-17.1L223.1,0z M227.6,0l-22.8,22.4l0.6,0.6L228,0.4L227.6,0z M232.2,0l-28.1,28l0.6,0.4l28.1-28L232.2,0z M236.6,0
			l-33.5,33.3l0.6,0.6l33.5-33.5L236.6,0z M241.1,0l-39,38.8l0.6,0.4l39-38.8L241.1,0z M245.5,0l-16.2,16.1l0.6,0.4l16.2-16.1
			L245.5,0z M250,0l-16.2,16.1l0.6,0.4l16.2-16.1L250,0z M254.6,0l-16.2,16.1l0.6,0.4l16.2-16.1L254.6,0z M312.2,0l-18,17.9l0.6,0.6
			l18-18.1L312.2,0z M316.8,0l-23.6,23.2l0.6,0.6l23.4-23.4L316.8,0z M321.3,0l-28.9,28.7l0.6,0.4l28.9-28.7L321.3,0z M325.7,0
			l-34.3,34.1l0.6,0.6l34.3-34.3L325.7,0z M330.3,0l-39.8,39.4L291,40l39.8-39.6L330.3,0z M334.6,0l-16.2,16.1l0.6,0.4l16.2-16.1
			L334.6,0z M339.2,0l-16.2,16.1l0.6,0.4l16.2-16.1L339.2,0z M361.9,0l-1.2,1l0.6,0.6l1-1.2L361.9,0z M366.5,0l-5.9,5.7l0.6,0.6
			l5.7-5.9L366.5,0z M370.9,0l-10.7,10.4l0.6,0.6l10.7-10.6L370.9,0z M375.4,0L360,15.2l0.6,0.6L376,0.4L375.4,0z M406.7,0l-3.6,3.5
			l0.6,0.6l3.6-3.7L406.7,0z M411.3,0l-9.9,9.6l0.6,0.6l9.7-9.8L411.3,0z M415.8,0l-16,15.7l0.6,0.6l15.8-15.9L415.8,0z M420.2,0
			L398,21.9l0.6,0.6l22.2-22L420.2,0z M431.1,0l-1,0.8l0.6,0.6l0.8-1L431.1,0z M435.4,0l-6.3,6.3l0.6,0.6l6.3-6.5L435.4,0z M440,0
			l-11.9,11.6l0.6,0.6l11.7-11.8L440,0z M444.4,0l-17.2,17.1l0.6,0.4l17.2-17.1L444.4,0z M448.9,0l-22.8,22.4l0.6,0.6l22.6-22.6
			L448.9,0z M453.5,0l-28.1,28l0.6,0.4l28.1-28L453.5,0z M457.8,0l-33.5,33.3l0.6,0.6l33.5-33.5L457.8,0z M462.4,0l-39,38.8l0.6,0.4
			l39-38.8L462.4,0z M466.7,0l-16.2,16.1l0.6,0.4l16.2-16.1L466.7,0z M471.3,0l-16.2,16.1l0.6,0.4l16.2-16.1L471.3,0z M475.9,0
			l-16.2,16.1l0.6,0.4l16.2-16.1L475.9,0z M488.5,0l-1,0.8l0.6,0.6l0.8-1L488.5,0z M492.9,0l-6.3,6.3l0.6,0.6l6.3-6.5L492.9,0z
			 M497.4,0l-11.9,11.6l0.6,0.6l11.7-11.8L497.4,0z M501.8,0l-17.2,17.1l0.6,0.4l17.2-17.1L501.8,0z M506.4,0l-22.8,22.4l0.6,0.6
			l22.6-22.6L506.4,0z M510.9,0l-28.1,28l0.6,0.4l28.1-28L510.9,0z M515.3,0l-33.5,33.3l0.6,0.6l33.5-33.5L515.3,0z M519.8,0
			L504,15.7l0.6,0.4l15.8-15.7L519.8,0z M524.2,0l-15.8,15.7l0.6,0.4l15.8-15.7L524.2,0z M528.7,0l-15.8,15.7l0.6,0.4l15.8-15.7
			L528.7,0z M584.8,0l-1.2,1.2l0.6,0.6l1.2-1.4L584.8,0z M589.6,0l-6.7,6.5l0.6,0.6l6.7-6.7L589.6,0z M593.9,0l-12.1,12l0.6,0.6
			l12.1-12.2L593.9,0z M598.5,0l-15.9,15.7l0.6,0.4l15.9-15.7L598.5,0z M602.8,0L587,15.7l0.6,0.4l15.9-15.7L602.8,0z M607.4,0
			l-15.8,15.7l0.6,0.4L608,0.4L607.4,0z M611.9,0l-15.8,15.7l0.6,0.4l15.9-15.7L611.9,0z M616.3,0l-17.4,17.3l0.6,0.4l17.4-17.3
			L616.3,0z M620.7,0l-22.8,22.6l0.6,0.6l22.8-22.8L620.7,0z M625.2,0l-28.3,28.2l0.6,0.4l28.3-28.1L625.2,0z M629.8,0l-33.7,33.5
			l0.6,0.6l33.7-33.7L629.8,0z M634.3,0l-15.8,15.7l0.6,0.4l15.9-15.7L634.3,0z M638.7,0l-15.8,15.7l0.6,0.4l15.8-15.7L638.7,0z
			 M648.2,0l-1,0.8l0.6,0.6l0.8-1L648.2,0z M652.6,0l-6.3,6.3l0.6,0.6l6.3-6.5L652.6,0z M657.1,0l-11.9,11.6l0.6,0.6l11.7-11.8
			L657.1,0z M661.5,0l-17.2,17.1l0.6,0.4l17.2-17.1L661.5,0z M666,0l-22.8,22.4l0.6,0.6l22.6-22.6L666,0z M688.4,0l-2.6,2.4l0.6,0.6
			l2.4-2.6L688.4,0z M693,0L685,7.9l0.6,0.6l7.9-8.1L693,0z M697.5,0l-13.5,13.2l0.6,0.6l13.3-13.4L697.5,0z M701.9,0l-18.8,18.7
			l0.6,0.4l18.8-18.7L701.9,0z M719.3,0l-1,0.8l0.6,0.6l0.8-1L719.3,0z M723.7,0l-6.3,6.3l0.6,0.6l6.3-6.5L723.7,0z M728.2,0
			l-11.9,11.6l0.6,0.6l11.7-11.8L728.2,0z M732.6,0l-17.2,17.1l0.6,0.4l17.2-17.1L732.6,0z M737.1,0l-22.8,22.4L715,23l22.6-22.6
			L737.1,0z M741.7,0l-28.1,28l0.6,0.4l28.1-28L741.7,0z M746.1,0l-33.5,33.3l0.6,0.6l33.5-33.5L746.1,0z M750.6,0l-39,38.8l0.6,0.4
			l39-38.8L750.6,0z M755,0l-16.2,16.1l0.6,0.4l16.2-16.1L755,0z M759.5,0l-16.2,16.1l0.6,0.4l16.2-16.1L759.5,0z M764.1,0
			l-16.2,16.1l0.6,0.4l16.2-16.1L764.1,0z M801.7,0l-1,1l0.6,0.6l1-1.2L801.7,0z M806.3,0l-5.7,5.7l0.6,0.6l5.7-5.9L806.3,0z
			 M810.8,0l-10.5,10.4l0.6,0.4l10.5-10.4L810.8,0z M815.4,0l-15.3,15l0.6,0.6L816,0.4L815.4,0z M819.9,0l-20,19.7l0.6,0.6
			l19.8-19.9L819.9,0z M846.7,0l-2,2l0.6,0.6l2-2.2L846.7,0z M851.2,0l-8.3,8.1l0.6,0.6l8.3-8.3L851.2,0z M855.6,0l-14.5,14.4
			l0.6,0.4l14.5-14.4L855.6,0z M860.2,0l-20.6,20.5l0.6,0.6l20.6-20.7L860.2,0z M864.7,0l-26.9,26.6l0.6,0.6l26.9-26.8L864.7,0z
			 M869.1,0L836,32.9l0.6,0.6l32.9-32.9L869.1,0z M896,0l-3.4,3.1l0.6,0.6l3.4-3.3L896,0z M900.4,0l-9.3,9.3l0.6,0.6l9.3-9.4
			L900.4,0z M904.9,0l-15.5,15.4l0.6,0.6l15.5-15.6L904.9,0z M909.5,0l-21.6,21.5l0.6,0.4l21.6-21.5L909.5,0z M933.5,0l-18,17.9
			l0.6,0.6l18-18.1L933.5,0z M938,0l-23.6,23.2l0.6,0.6l23.4-23.4L938,0z M942.6,0l-28.9,28.7l0.6,0.4l28.9-28.7L942.6,0z M946.9,0
			l-34.3,34.1l0.6,0.6l34.3-34.3L946.9,0z M951.5,0l-39.8,39.4l0.6,0.6l39.8-39.6L951.5,0z M955.8,0l-16.2,16.1l0.6,0.4l16.2-16.1
			L955.8,0z M960.4,0l-16.2,16.1l0.6,0.4L961,0.4L960.4,0z M988.9,0l-1,0.8l0.6,0.6l0.8-1L988.9,0z M993.3,0l-6.3,6.3l0.6,0.6
			l6.3-6.5L993.3,0z M997.8,0L986,11.6l0.6,0.6l11.7-11.8L997.8,0z M1002.2,0L985,17.1l0.6,0.4l17.2-17.1L1002.2,0z M1006.8,0
			L984,22.4l0.6,0.6l22.6-22.6L1006.8,0z M1011.3,0l-28.1,28l0.6,0.4l28.1-28L1011.3,0z M1015.7,0l-33.5,33.3l0.6,0.6l33.5-33.5
			L1015.7,0z M1020.2,0l-15.9,15.7l0.6,0.4l15.8-15.7L1020.2,0z M1024.6,0l-15.8,15.7l0.6,0.4l15.8-15.7L1024.6,0z M1029.1,0
			l-15.8,15.7l0.6,0.4l15.8-15.7L1029.1,0z M1058.2,0l-1,0.8l0.6,0.6l0.8-1L1058.2,0z M1062.6,0l-6.3,6.3l0.6,0.6l6.3-6.5L1062.6,0z
			 M1067.2,0l-11.9,11.6l0.6,0.6l11.7-11.8L1067.2,0z M1071.5,0l-17.2,17.1l0.6,0.4l17.2-17.1L1071.5,0z M1076.1,0l-22.8,22.4
			l0.6,0.6l22.6-22.6L1076.1,0z M1080.6,0l-28.1,28l0.6,0.4l28.1-28L1080.6,0z M1085,0l-33.5,33.3l0.6,0.6l33.5-33.5L1085,0z
			 M1089.5,0l-39,38.8l0.6,0.4l39-38.8L1089.5,0z M1093.9,0l-16.2,16.1l0.6,0.4l16.2-16.1L1093.9,0z M1098.5,0l-16.2,16.1l0.6,0.4
			l16.2-16.1L1098.5,0z"/>
		<path class="st2" d="M8.5,0.2L5.7,15.9h18L-0.1,149.8h19L42.7,15.9h18l2.8-15.7H8.5 M85.3,19.7l-6.1,75.4H64.7L85.3,19.7z
			 M75.2,0.2L30.6,149.8h19l10.5-38.6h17.6l-3.2,38.6h19.8l8.1-149.6H75.2z M170.9,0.2l-36.6,79.7l14.1-79.7h-19l-26.5,149.6h19
			l6.3-35.6L142,88.6l3,61.2h19.8l-6.9-83.3l32.3-66.3H170.9z M199.4,0.2l-26.5,149.6h47.3l2.8-16.1h-28.3l9.3-51.6h24.4l2.8-16.1
			h-24.4l8.9-49.6h27.9l2.8-16.1H199.4z M284,129.7l19.4-109.4l4.8-3.9h10.9l3.2,3.9l-19.4,109.4l-4.8,3.9h-10.9L284,129.7z
			 M299.9,0.2L285.8,12l-22.2,126l9.7,11.8h33.1l14.1-11.8l22.2-126l-9.7-11.8H299.9z M394.6,0.2l-34.9,127.4L370,0.2h-18.6
			l-9.3,149.6h26.5L412.4,0.2H394.6z M420.7,0.2l-26.5,149.6h47.3l2.8-16.1h-28.3l9.3-51.6h24.4l2.8-16.1H428l8.9-49.6h27.9
			l2.8-16.1H420.7z M494.4,15.9h13.9l3.2,3.9l-8.3,46.8l-4.6,3.9h-13.9L494.4,15.9z M478.1,0.2l-26.5,149.6h19L481.9,86h8.1
			l0.4,63.8h18.4l-0.4-65.2l12.5-10.4L531.8,12l-9.7-11.8H478.1z M574.4,0.2l-2.8,15.7h18l-23.8,133.9h19l23.8-133.9h18l2.8-15.7
			H574.4z M676.8,0.2l-11.7,66.3h-20l11.7-66.3h-19l-26.5,149.6h19l11.9-66.7h20l-11.9,66.7h19L695.9,0.2H676.8z M708.9,0.2
			l-26.5,149.6h47.3l2.8-16.1h-28.3l9.3-51.6h24.4l2.8-16.1h-24.4l8.9-49.6h27.9l2.8-16.1H708.9z M884,0.2l-34.3,129.3l9.7-129.3
			h-23.8l-36.3,129.3L811.1,0.2h-19.8L784,149.8h26.5l32.7-126l-12.1,126h25.8L902.7,0.2H884z M905.2,129.7l19.4-109.4l4.8-3.9h10.9
			l3.2,3.9l-19.4,109.4l-4.8,3.9h-10.9L905.2,129.7z M921.1,0.2L907,12l-22.2,126l9.7,11.8h33.1l14.1-11.8l22.2-126l-9.7-11.8H921.1
			z M994.8,15.9h13.9l3.2,3.9l-8.3,46.8l-4.6,3.9h-13.9L994.8,15.9z M978.5,0.2L952,149.8h19L982.3,86h8.1l0.4,63.8h18.4l-0.4-65.2
			l12.5-10.4l10.9-62.2l-9.7-11.8H978.5z M1064.1,16.3h14.5l3.2,3.9l-19.4,109.4l-4.8,3.9h-14.5L1064.1,16.3z M1047.9,0.2
			l-26.5,149.6h44.6L1080,138l22.2-126l-9.7-11.8H1047.9z"/>
	</g>
</g>
</svg>
